<svg version="1.1" xmlns="http://www.w3.org/2000/svg" viewBox="0 0 1306.7298965454102 747.5167064666748" width="1306.7298965454102" height="747.5167064666748">
  <!-- svg-source:excalidraw -->
  
  <defs>
    <style class="style-fonts">
      @font-face {
        font-family: "Virgil";
        src: url("https://excalidraw.com/Virgil.woff2");
      }
      @font-face {
        font-family: "Cascadia";
        src: url("https://excalidraw.com/Cascadia.woff2");
      }
      @font-face {
        font-family: "Assistant";
        src: url("https://excalidraw.com/Assistant-Regular.woff2");
      }
    </style>
    
  </defs>
  <rect x="0" y="0" width="1306.7298965454102" height="747.5167064666748" fill="#ffffff"></rect><g stroke-linecap="round" transform="translate(72.2000503540039 256.8666744232178) rotate(0 136.00001525878906 89.60003662109375)"><path d="M83.29 7.38 C95.84 2.49, 113.22 1.22, 128.83 0.6 C144.44 -0.02, 161.89 0.77, 176.93 3.66 C191.96 6.55, 206.94 11.66, 219.01 17.92 C231.09 24.17, 240.96 32.73, 249.37 41.2 C257.79 49.67, 265.83 58.74, 269.51 68.74 C273.18 78.75, 273.39 91.04, 271.41 101.25 C269.42 111.46, 264.84 121.04, 257.6 130.01 C250.35 138.98, 239.33 148.01, 227.93 155.08 C216.53 162.14, 203.28 168.26, 189.21 172.41 C175.13 176.56, 159.14 179.6, 143.5 179.98 C127.86 180.37, 110.29 177.99, 95.38 174.71 C80.47 171.43, 66.21 166.44, 54.03 160.3 C41.86 154.17, 30.84 146.35, 22.35 137.9 C13.86 129.45, 6.78 119.44, 3.08 109.6 C-0.61 99.76, -1.85 88.82, 0.2 78.84 C2.24 68.86, 8.1 58.99, 15.34 49.72 C22.58 40.44, 31.13 30.74, 43.62 23.21 C56.12 15.68, 81.12 7.68, 90.3 4.55 C99.48 1.42, 98 3, 98.7 4.43" stroke="#1971c2" stroke-width="2.5" fill="none" stroke-dasharray="8 10"></path></g><g transform="translate(161.97356554081364 334.109917554973) rotate(0 46.059967041015625 12.5)"><text x="46.059967041015625" y="0" font-family="Virgil, Segoe UI Emoji" font-size="20px" fill="#1971c2" text-anchor="middle" style="white-space: pre;" direction="ltr" dominant-baseline="text-before-edge">IP Fabric</text></g><g stroke-linecap="round" transform="translate(128.39995574951172 447.2667293548584) rotate(0 136.00001525878906 89.60003662109375)"><path d="M158.55 0.84 C173.64 0.88, 189.96 6.05, 203.21 11.12 C216.46 16.19, 227.91 23.63, 238.05 31.25 C248.19 38.88, 258.3 47.25, 264.03 56.85 C269.76 66.45, 272.27 78.55, 272.44 88.84 C272.6 99.13, 270.27 109.05, 265.01 118.58 C259.74 128.11, 250.66 137.97, 240.83 146 C231 154.04, 219.14 161.38, 206.04 166.79 C192.94 172.21, 177.61 176.71, 162.23 178.5 C146.85 180.29, 129.15 179.44, 113.75 177.54 C98.35 175.64, 83.18 172.05, 69.83 167.1 C56.49 162.15, 43.88 155.44, 33.67 147.84 C23.46 140.24, 14.31 130.93, 8.56 121.49 C2.81 112.06, -0.73 101.31, -0.83 91.25 C-0.94 81.2, 2.67 70.98, 7.93 61.15 C13.19 51.32, 21.09 40.45, 30.72 32.28 C40.36 24.12, 52.6 17.37, 65.75 12.14 C78.9 6.9, 93.11 2.6, 109.65 0.87 C126.19 -0.85, 154.48 1.17, 164.98 1.8 C175.48 2.42, 173.01 3.27, 172.63 4.64" stroke="#2f9e44" stroke-width="2.5" fill="none" stroke-dasharray="8 10"></path></g><g transform="translate(234.78345628788395 524.5099724866136) rotate(0 29.449981689453125 12.5)"><text x="29.449981689453125" y="0" font-family="Virgil, Segoe UI Emoji" font-size="20px" fill="#2f9e44" text-anchor="middle" style="white-space: pre;" direction="ltr" dominant-baseline="text-before-edge">OOBM</text></g><g stroke-linecap="round" transform="translate(587.7999801635742 153.86663627624512) rotate(0 136.00001525878906 89.60003662109375)"><path d="M114.73 1.28 C128.97 -1.67, 148.3 -1.17, 163.71 0.9 C179.13 2.96, 194.04 8.27, 207.22 13.66 C220.39 19.05, 233.25 25.38, 242.75 33.23 C252.25 41.09, 259.31 51, 264.22 60.79 C269.14 70.58, 272.41 81.6, 272.26 91.99 C272.1 102.38, 269.09 113.74, 263.29 123.12 C257.49 132.51, 247.8 140.88, 237.46 148.28 C227.13 155.67, 214.69 162.55, 201.27 167.48 C187.86 172.4, 172.38 176.16, 156.98 177.82 C141.58 179.48, 124.31 179.34, 108.88 177.45 C93.45 175.55, 77.5 171.6, 64.39 166.44 C51.27 161.28, 39.7 154.65, 30.19 146.49 C20.68 138.34, 12.44 127.42, 7.33 117.5 C2.22 107.57, -0.68 97.15, -0.47 86.94 C-0.26 76.73, 2.99 65.73, 8.59 56.25 C14.18 46.76, 22.8 37.67, 33.09 30.02 C43.38 22.37, 53.38 15.5, 70.32 10.35 C87.27 5.19, 120.68 0.45, 134.74 -0.9 C148.8 -2.24, 154.5 0.61, 154.71 2.3" stroke="#f08c00" stroke-width="2.5" fill="none" stroke-dasharray="8 10"></path></g><g transform="translate(660.3635038953058 218.60987940800032) rotate(0 63.26995849609375 25)"><text x="63.26995849609375" y="0" font-family="Virgil, Segoe UI Emoji" font-size="20px" fill="#f08c00" text-anchor="middle" style="white-space: pre;" direction="ltr" dominant-baseline="text-before-edge">Management </text><text x="63.26995849609375" y="25" font-family="Virgil, Segoe UI Emoji" font-size="20px" fill="#f08c00" text-anchor="middle" style="white-space: pre;" direction="ltr" dominant-baseline="text-before-edge">Elements</text></g><g stroke-linecap="round" transform="translate(396.19995880126953 308.066686630249) rotate(0 91.60000610351562 68.79998779296875)"><path d="M115 17.25 C125.89 27.18, 141.6 34.25, 160.2 51.75 M115 17.25 C130.39 28.28, 146.24 41.12, 160.2 51.75 M160.2 51.75 C183.74 70.25, 185 67.76, 160.2 86.25 M160.2 51.75 C181.99 69.18, 181.46 70.24, 160.2 86.25 M160.2 86.25 C146.47 95.89, 137.06 106.11, 115 120.35 M160.2 86.25 C144.97 96.16, 130.35 106.98, 115 120.35 M115 120.35 C91.24 136.64, 90.76 137.29, 69 120.35 M115 120.35 C89.93 139.47, 91.33 139.84, 69 120.35 M69 120.35 C54.26 111.55, 40.5 97.07, 23 86.25 M69 120.35 C54.13 108.91, 39.76 98.26, 23 86.25 M23 86.25 C-0.29 70.41, 0.68 69.94, 23 51.75 M23 86.25 C-1.77 67.35, -2.03 68.89, 23 51.75 M23 51.75 C35.07 40.46, 46.13 34.91, 69 17.25 M23 51.75 C35.43 41.58, 48.88 32.3, 69 17.25 M69 17.25 C90.85 -1.87, 92.66 0.19, 115 17.25 M69 17.25 C90.12 0.27, 90.15 1.69, 115 17.25" stroke="#f08c00" stroke-width="2" fill="none"></path></g><g transform="translate(450.7099914550781 351.9666805267334) rotate(0 37.28997039794922 25)"><text x="37.28997039794922" y="0" font-family="Virgil, Segoe UI Emoji" font-size="20px" fill="#f08c00" text-anchor="middle" style="white-space: pre;" direction="ltr" dominant-baseline="text-before-edge">Virtual </text><text x="37.28997039794922" y="25" font-family="Virgil, Segoe UI Emoji" font-size="20px" fill="#f08c00" text-anchor="middle" style="white-space: pre;" direction="ltr" dominant-baseline="text-before-edge">Firewall</text></g><g stroke-linecap="round" transform="translate(602.3998947143555 360.6666622161865) rotate(0 136.00001525878906 89.60003662109375)"><path d="M173.71 3.47 C188.41 4.98, 204.27 11.5, 216.96 17.73 C229.66 23.97, 241.45 32.51, 249.88 40.89 C258.31 49.26, 263.99 58.33, 267.55 67.98 C271.11 77.63, 272.76 88.62, 271.23 98.8 C269.71 108.98, 265.34 119.77, 258.38 129.05 C251.42 138.33, 240.93 147.31, 229.48 154.47 C218.02 161.63, 203.72 167.77, 189.64 172.02 C175.56 176.27, 160.29 179.49, 144.99 179.96 C129.69 180.43, 112.87 177.94, 97.84 174.81 C82.81 171.69, 67.46 167.25, 54.82 161.2 C42.18 155.14, 30.64 146.96, 22 138.48 C13.36 130, 6.61 120.23, 3 110.32 C-0.6 100.41, -1.47 89.26, 0.36 79.02 C2.2 68.78, 6.9 57.99, 14.01 48.89 C21.11 39.79, 31.58 31.3, 42.99 24.44 C54.4 17.59, 68.32 11.7, 82.48 7.74 C96.64 3.79, 111.3 0.95, 127.95 0.71 C144.6 0.48, 172.11 5.07, 182.38 6.33 C192.65 7.59, 190.34 7.02, 189.56 8.26" stroke="#f08c00" stroke-width="2.5" fill="none" stroke-dasharray="8 10"></path></g><g transform="translate(682.3934340100519 437.90990534794173) rotate(0 55.839942932128906 12.5)"><text x="55.839942932128906" y="0" font-family="Virgil, Segoe UI Emoji" font-size="20px" fill="#f08c00" text-anchor="middle" style="white-space: pre;" direction="ltr" dominant-baseline="text-before-edge">Jump Hosts</text></g><g stroke-linecap="round" transform="translate(889.7999954223633 216.06669425964355) rotate(0 49.2000732421875 17.5)"><path d="M8.75 0 C36.37 0, 67.13 0.87, 89.65 0 M8.75 0 C37.56 0.58, 66.66 1.04, 89.65 0 M89.65 0 C94.76 -0.69, 98.4 1.22, 98.4 8.75 M89.65 0 C96.23 0.93, 100.56 3.36, 98.4 8.75 M98.4 8.75 C97 11.42, 96.87 15.96, 98.4 26.25 M98.4 8.75 C97.5 13.87, 98.04 18.42, 98.4 26.25 M98.4 26.25 C98.87 33.16, 96.55 35.33, 89.65 35 M98.4 26.25 C100.69 33.76, 93.81 35.28, 89.65 35 M89.65 35 C64.75 33.53, 40.51 34.29, 8.75 35 M89.65 35 C58.93 34.67, 28.86 35.34, 8.75 35 M8.75 35 C2.1 36.09, 1.96 32.42, 0 26.25 M8.75 35 C0.73 34.41, 1.7 31.62, 0 26.25 M0 26.25 C-1.39 20.27, -0.75 11.7, 0 8.75 M0 26.25 C-0.77 22.74, -0.76 19.66, 0 8.75 M0 8.75 C1 1.73, 4.65 0.42, 8.75 0 M0 8.75 C-1.38 2.12, 1.31 -1.31, 8.75 0" stroke="#f08c00" stroke-width="2" fill="none"></path></g><g transform="translate(895.7901077270508 221.06669425964355) rotate(0 43.2099609375 12.5)"><text x="43.2099609375" y="0" font-family="Virgil, Segoe UI Emoji" font-size="20px" fill="#f08c00" text-anchor="middle" style="white-space: pre;" direction="ltr" dominant-baseline="text-before-edge">LibreNMS</text></g><g stroke-linecap="round" transform="translate(862.200080871582 147.3666591644278) rotate(0 49.2000732421875 17.5)"><path d="M8.75 0 C32.94 1.58, 53.38 -1.27, 89.65 0 M8.75 0 C33.28 -0.78, 58.54 -1.28, 89.65 0 M89.65 0 C96.13 0.81, 100.28 3.3, 98.4 8.75 M89.65 0 C93.76 -1.17, 97.16 1.19, 98.4 8.75 M98.4 8.75 C97.42 11.64, 97.98 15.13, 98.4 26.25 M98.4 8.75 C98.56 15.89, 98.82 22.23, 98.4 26.25 M98.4 26.25 C100.39 33.54, 94.03 35.24, 89.65 35 M98.4 26.25 C98.39 29.82, 94.29 34.22, 89.65 35 M89.65 35 C71.02 35.56, 50.51 33.35, 8.75 35 M89.65 35 C70.76 35.51, 53.67 35.13, 8.75 35 M8.75 35 C1.02 34.49, 1.48 31.68, 0 26.25 M8.75 35 C4.92 33.24, -0.32 30.08, 0 26.25 M0 26.25 C-1.54 20.79, 0.26 12.74, 0 8.75 M0 26.25 C0.58 20.27, 0.9 15.52, 0 8.75 M0 8.75 C-1.2 2.23, 1.52 -1.14, 8.75 0 M0 8.75 C-1.06 3.39, 2.01 0.94, 8.75 0" stroke="#f08c00" stroke-width="2" fill="none"></path></g><g transform="translate(877.8601837158203 152.3666591644278) rotate(0 33.53997039794922 12.5)"><text x="33.53997039794922" y="0" font-family="Virgil, Segoe UI Emoji" font-size="20px" fill="#f08c00" text-anchor="middle" style="white-space: pre;" direction="ltr" dominant-baseline="text-before-edge">Apstra</text></g><g stroke-linecap="round"><g transform="translate(403.40003204345703 376.066686630249) rotate(0 -28.000030517578125 -10.400009155273438)"><path d="M-0.63 0.09 C-10.29 -3.14, -47.61 -16.6, -56.91 -20.15 M1.24 -0.9 C-8.14 -4.42, -44.89 -18.73, -54.67 -21.93" stroke="#f08c00" stroke-width="2" fill="none"></path></g></g><mask></mask><g stroke-linecap="round"><g transform="translate(333.7999954223633 460.8666744232178) rotate(0 33.20001220703125 -41.19999694824219)"><path d="M-0.91 0.65 C10.19 -13.17, 54.75 -68.8, 65.96 -82.82 M0.82 -0.06 C11.78 -13.71, 53.98 -67.73, 64.79 -81.5" stroke="#f08c00" stroke-width="2" fill="none"></path></g></g><mask></mask><g stroke-linecap="round"><g transform="translate(617.6281677168515 406.9192476336739) rotate(0 -22.799957275390625 -14)"><path d="M-0.44 -0.42 C-7.88 -5.36, -38.14 -24.5, -45.6 -29.02 M1.54 -1.68 C-5.99 -6.56, -38.66 -23.36, -46.54 -28.01" stroke="#f08c00" stroke-width="2" fill="none"></path></g></g><mask></mask><g stroke-linecap="round"><g transform="translate(574.8877599804009 377.8086176354427) rotate(0 15.60003662109375 -42.79998779296875)"><path d="M0 -1.02 C5.34 -15.13, 26.2 -71.05, 31.59 -85.11 M-1.46 1.06 C3.8 -13.38, 25.24 -72.81, 30.84 -86.98" stroke="#f08c00" stroke-width="2" fill="none"></path></g></g><mask></mask><g stroke-linecap="round"><g transform="translate(862.599983215332 180.06668663024902) rotate(0 -17.5999755859375 4.400001525878906)"><path d="M0.18 0.22 C-5.6 1.79, -28.72 7.52, -34.68 8.91 M-0.39 -0.14 C-6.2 1.29, -29.16 6.48, -34.85 8" stroke="#f08c00" stroke-width="2" fill="none"></path></g></g><mask></mask><g stroke-linecap="round"><g transform="translate(888.200080871582 234.4666805267334) rotate(0 -11.60003662109375 0.8000030517578125)"><path d="M0.52 0.11 C-3.45 0.29, -19.61 1.14, -23.61 1.32 M0.12 -0.31 C-3.69 -0.08, -18.57 1.56, -22.59 1.88" stroke="#f08c00" stroke-width="2" fill="none"></path></g></g><mask></mask><g stroke-linecap="round" transform="translate(913.3999099731445 396.9666805267334) rotate(0 49.2000732421875 17.5)"><path d="M8.75 0 C39.59 -0.47, 70.97 -0.85, 89.65 0 M8.75 0 C25.75 0.23, 43.09 1.2, 89.65 0 M89.65 0 C94.9 1.95, 98.87 3.99, 98.4 8.75 M89.65 0 C96.71 0.38, 100.69 4.59, 98.4 8.75 M98.4 8.75 C96.7 11.82, 97.83 15.79, 98.4 26.25 M98.4 8.75 C98.67 13.79, 97.7 17.38, 98.4 26.25 M98.4 26.25 C96.63 31.99, 94.66 36.09, 89.65 35 M98.4 26.25 C100.65 32.47, 93.3 34.41, 89.65 35 M89.65 35 C57.86 35.42, 27.38 36.6, 8.75 35 M89.65 35 C69.81 34.34, 48.5 34.36, 8.75 35 M8.75 35 C1.31 36.47, 1 30.89, 0 26.25 M8.75 35 C4.9 35.49, -1.38 31.29, 0 26.25 M0 26.25 C0.46 21.54, 0.82 16.83, 0 8.75 M0 26.25 C0.49 21.52, 0.12 15.09, 0 8.75 M0 8.75 C-0.85 1.3, 4.7 -0.52, 8.75 0 M0 8.75 C-2.16 1.8, 1.82 -2, 8.75 0" stroke="#f08c00" stroke-width="2" fill="none"></path></g><g transform="translate(921.8200225830078 401.9666805267334) rotate(0 40.77996063232422 12.5)"><text x="40.77996063232422" y="0" font-family="Virgil, Segoe UI Emoji" font-size="20px" fill="#f08c00" text-anchor="middle" style="white-space: pre;" direction="ltr" dominant-baseline="text-before-edge">jhost##</text></g><g stroke-linecap="round"><g transform="translate(868.200080871582 422.4666805267334) rotate(0 21.5999755859375 -3.5999908447265625)"><path d="M-0.4 -0.45 C6.81 -1.63, 35.78 -6.32, 42.99 -7.46 M0.4 0.51 C7.55 -0.56, 35.18 -5.69, 42.45 -6.9" stroke="#f08c00" stroke-width="2" fill="none"></path></g></g><mask></mask><g stroke-linecap="round" transform="translate(256.6000289916992 98.86665153503418) rotate(0 136.00001525878906 89.60003662109375)"><path d="M95.32 3.98 C108.88 -0.13, 126.83 -0.23, 142.28 0.3 C157.72 0.84, 173.78 3.21, 188 7.2 C202.22 11.19, 216.07 17.6, 227.58 24.26 C239.09 30.91, 249.85 38.26, 257.07 47.13 C264.29 56.01, 269.06 67.33, 270.87 77.49 C272.68 87.64, 271.29 98.17, 267.93 108.07 C264.57 117.97, 258.86 128.17, 250.7 136.87 C242.53 145.57, 231.02 153.89, 218.94 160.29 C206.85 166.69, 192.83 172.25, 178.2 175.27 C163.57 178.28, 146.9 178.97, 131.17 178.36 C115.44 177.76, 98.26 175.46, 83.82 171.65 C69.38 167.85, 55.81 162.09, 44.54 155.53 C33.27 148.97, 23.39 141.45, 16.21 132.32 C9.02 123.19, 3.65 110.92, 1.42 100.76 C-0.81 90.6, -0.39 81.03, 2.83 71.35 C6.06 61.67, 12.57 51.47, 20.76 42.68 C28.94 33.89, 38.94 25.12, 51.95 18.63 C64.95 12.13, 89.94 6.22, 98.78 3.71 C107.62 1.2, 104.38 2.13, 104.97 3.55" stroke="#1e1e1e" stroke-width="2.5" fill="none" stroke-dasharray="8 10"></path></g><g transform="translate(351.10354753544254 176.1098946667894) rotate(0 41.32996368408203 12.5)"><text x="41.32996368408203" y="0" font-family="Virgil, Segoe UI Emoji" font-size="20px" fill="#1e1e1e" text-anchor="middle" style="white-space: pre;" direction="ltr" dominant-baseline="text-before-edge">Internet</text></g><g stroke-linecap="round"><g transform="translate(487.10559505358333 314.3734759341178) rotate(0 -34 -19.20001983642578)"><path d="M-1.08 0.97 C-12.35 -5.2, -57.24 -30.78, -68.35 -37.23 M0.55 0.44 C-10.84 -6.02, -58 -32.04, -69.48 -38.74" stroke="#f08c00" stroke-width="2" fill="none"></path></g></g><mask></mask><g stroke-linecap="round" transform="translate(506.4999465942383 558.3166332244873) rotate(0 136.00001525878906 89.60003662109375)"><path d="M152.22 1.62 C167.13 1.17, 184.17 4.45, 198.01 8.88 C211.84 13.32, 224.9 20.76, 235.23 28.24 C245.56 35.71, 253.96 44.45, 260 53.76 C266.04 63.06, 270.47 73.78, 271.44 84.04 C272.42 94.31, 270.16 105.4, 265.85 115.32 C261.55 125.25, 254.78 135.51, 245.63 143.59 C236.48 151.67, 224.19 158.4, 210.98 163.79 C197.77 169.18, 181.57 173.55, 166.39 175.94 C151.21 178.34, 135.08 179.06, 119.9 178.16 C104.71 177.27, 89.08 175.26, 75.27 170.57 C61.46 165.88, 47.81 157.49, 37.06 150.01 C26.31 142.52, 16.93 134.75, 10.76 125.67 C4.59 116.58, 0.97 105.85, 0.01 95.5 C-0.94 85.16, 0.66 73.44, 5.03 63.59 C9.39 53.74, 16.88 44.66, 26.2 36.4 C35.53 28.15, 48.02 19.69, 60.99 14.07 C73.95 8.45, 86.41 4.81, 103.97 2.71 C121.52 0.6, 153.76 0.92, 166.32 1.42 C178.87 1.93, 179.68 4.04, 179.29 5.72" stroke="#f08c00" stroke-width="2.5" fill="none" stroke-dasharray="8 10"></path></g><g transform="translate(618.9034437756769 635.5598763562425) rotate(0 23.42998504638672 12.5)"><text x="23.42998504638672" y="0" font-family="Virgil, Segoe UI Emoji" font-size="20px" fill="#f08c00" text-anchor="middle" style="white-space: pre;" direction="ltr" dominant-baseline="text-before-edge">DMZ</text></g><g stroke-linecap="round" transform="translate(832.2999038696289 634.4167232513428) rotate(0 57.200103759765625 30)"><path d="M15 0 C42.65 1.54, 71.09 -1.9, 99.4 0 M15 0 C40.83 0.49, 67.17 0.48, 99.4 0 M99.4 0 C109.11 1.41, 115.08 5.94, 114.4 15 M99.4 0 C107.63 -1.65, 112.37 4.89, 114.4 15 M114.4 15 C114.9 20.87, 114.05 32.03, 114.4 45 M114.4 15 C114.52 22.52, 115.11 31.28, 114.4 45 M114.4 45 C113.25 53.13, 110.06 60.19, 99.4 60 M114.4 45 C112.52 55.27, 107.55 61.69, 99.4 60 M99.4 60 C70.27 59.53, 39.61 59.33, 15 60 M99.4 60 C78.49 60.59, 57.59 60.18, 15 60 M15 60 C3.05 58.56, 0.74 56.22, 0 45 M15 60 C4.88 58.33, -0.97 53.14, 0 45 M0 45 C-0.89 32.38, -1.66 21.03, 0 15 M0 45 C0.05 32.64, 0.33 21.22, 0 15 M0 15 C1.99 6.75, 5.66 -1.89, 15 0 M0 15 C-0.91 3.01, 5.45 -0.25, 15 0" stroke="#f08c00" stroke-width="2" fill="none"></path></g><g transform="translate(837.6000442504883 651.9167232513428) rotate(0 51.89996337890625 12.5)"><text x="51.89996337890625" y="0" font-family="Virgil, Segoe UI Emoji" font-size="20px" fill="#f08c00" text-anchor="middle" style="white-space: pre;" direction="ltr" dominant-baseline="text-before-edge">Guacamole</text></g><g stroke-linecap="round"><g transform="translate(562.6877019970025 577.6587305504818) rotate(0 -36.29994201660156 -67.50004196166992)"><path d="M-0.87 0.15 C-13.17 -22.7, -60.55 -113.59, -72.61 -136.18 M0.87 -0.82 C-11.69 -23.64, -61.03 -113.02, -73.56 -135.26" stroke="#f08c00" stroke-width="2" fill="none"></path></g></g><mask></mask><g stroke-linecap="round"><g transform="translate(776.6071225768419 663.8703547270507) rotate(0 26.600013732910156 1.4000282287597656)"><path d="M-0.01 -1.18 C8.9 -0.81, 43.81 1.8, 52.58 2.39 M-1.47 0.81 C7.91 1.34, 46.14 3.27, 54.96 3.71" stroke="#f08c00" stroke-width="2" fill="none"></path></g></g><mask></mask><g stroke-linecap="round" transform="translate(1074.9999618530273 104.66667175292969) rotate(0 21.500015258789062 15.500020980834961)"><path d="M7.75 0 C16.81 2.44, 22.83 -1.34, 35.25 0 C41.65 1.37, 45.53 1.62, 43 7.75 C45.48 11.58, 43.19 16.84, 43 23.25 C40.12 25.83, 41.1 30.49, 35.25 31 C25.46 28.76, 16.59 27.61, 7.75 31 C3.42 28.66, -2.98 31.3, 0 23.25 C-1.77 16.15, -0.75 15.66, 0 7.75 C0.5 4.15, 3.68 -1.26, 7.75 0" stroke="none" stroke-width="0" fill="#1e1e1e"></path><path d="M7.75 0 C15.3 -0.9, 23.51 -0.15, 35.25 0 M7.75 0 C17.16 -0.85, 27.23 -0.18, 35.25 0 M35.25 0 C39.6 1.09, 44.96 2.92, 43 7.75 M35.25 0 C38.23 -0.59, 44.7 2.12, 43 7.75 M43 7.75 C41.53 14.45, 42.1 18.86, 43 23.25 M43 7.75 C42.42 11.05, 42.43 14.73, 43 23.25 M43 23.25 C44 27.23, 42.15 31.42, 35.25 31 M43 23.25 C41.62 27.62, 38.81 29.69, 35.25 31 M35.25 31 C29.09 29.32, 21.3 28.95, 7.75 31 M35.25 31 C28.93 30.44, 22.29 30.36, 7.75 31 M7.75 31 C4.37 30.48, -1.87 27.45, 0 23.25 M7.75 31 C1.49 29, -0.72 30.65, 0 23.25 M0 23.25 C-0.69 19.49, 0.09 16.56, 0 7.75 M0 23.25 C-0.36 16.57, 0.1 11.16, 0 7.75 M0 7.75 C-1.59 2.9, 2.96 -0.85, 7.75 0 M0 7.75 C1.97 3.46, 2.16 0.48, 7.75 0" stroke="#1e1e1e" stroke-width="2" fill="none"></path></g><g transform="translate(1147.0000839233398 107.66669273376465) rotate(0 18.139984130859375 12.5)"><text x="0" y="0" font-family="Virgil, Segoe UI Emoji" font-size="20px" fill="#1e1e1e" text-anchor="start" style="white-space: pre;" direction="ltr" dominant-baseline="text-before-edge">ISP</text></g><g stroke-linecap="round" transform="translate(1074.9999618530273 147.7916669845581) rotate(0 21.500015258789062 15.500020980834961)"><path d="M7.75 0 C19.37 1.5, 31.06 -0.83, 35.25 0 C42.6 2.51, 40.22 5.53, 43 7.75 C40.77 9.42, 43.53 14.69, 43 23.25 C43.83 28.84, 39.77 30.1, 35.25 31 C29.48 28.21, 19.06 33.43, 7.75 31 C3.39 34.06, -1.89 26.43, 0 23.25 C0.44 20.99, 0.9 15.31, 0 7.75 C-1.37 0.92, 0.84 -2.64, 7.75 0" stroke="none" stroke-width="0" fill="#fd7e14"></path><path d="M7.75 0 C15.97 0.72, 22.32 -1.5, 35.25 0 M7.75 0 C13.62 0.56, 21.29 0.18, 35.25 0 M35.25 0 C38.52 -0.51, 44.48 2.18, 43 7.75 M35.25 0 C42.42 -1.76, 42.68 0.58, 43 7.75 M43 7.75 C41.47 13.61, 43.07 17.18, 43 23.25 M43 7.75 C43.26 12.12, 43.55 17.58, 43 23.25 M43 23.25 C41.8 27.73, 39.02 29.86, 35.25 31 M43 23.25 C41.94 28.89, 39.51 31.94, 35.25 31 M35.25 31 C27.72 31.47, 24.29 30.63, 7.75 31 M35.25 31 C29.89 30.52, 21.81 30.29, 7.75 31 M7.75 31 C1.63 29.26, -0.63 30.36, 0 23.25 M7.75 31 C1.79 31.03, -0.12 27.4, 0 23.25 M0 23.25 C1.34 18.76, -1.47 12.63, 0 7.75 M0 23.25 C-0.65 20.07, 0.11 16.31, 0 7.75 M0 7.75 C1.71 3.35, 2.21 0.42, 7.75 0 M0 7.75 C0.61 2.23, 4.27 0.05, 7.75 0" stroke="#f08c00" stroke-width="2" fill="none"></path></g><g transform="translate(1145.859992980957 150.79168796539307) rotate(0 41.06996154785156 12.5)"><text x="0" y="0" font-family="Virgil, Segoe UI Emoji" font-size="20px" fill="#1e1e1e" text-anchor="start" style="white-space: pre;" direction="ltr" dominant-baseline="text-before-edge">Sidecart</text></g><g stroke-linecap="round" transform="translate(1074.9999618530273 197.04163074493408) rotate(0 21.500015258789062 15.500020980834961)"><path d="M7.75 0 C19.23 2.64, 23.56 3.08, 35.25 0 C38.14 -0.01, 40.3 -0.29, 43 7.75 C43.7 11.62, 42.55 14.13, 43 23.25 C40.85 27.53, 37.11 31.84, 35.25 31 C29.59 34.45, 20.43 29.41, 7.75 31 C-0.13 30.33, 3.1 28.91, 0 23.25 C-1.15 16.64, -1.44 10.55, 0 7.75 C-2.58 2.25, 5.41 -2.74, 7.75 0" stroke="none" stroke-width="0" fill="#6741d9"></path><path d="M7.75 0 C15.51 -1.56, 26.03 -0.61, 35.25 0 M7.75 0 C16.56 -0.3, 28 -0.25, 35.25 0 M35.25 0 C42.16 -1.53, 42.72 0.84, 43 7.75 M35.25 0 C41.45 -1.17, 41.68 0.44, 43 7.75 M43 7.75 C43.2 11.67, 44.16 18.86, 43 23.25 M43 7.75 C42.67 11.21, 42.59 14.77, 43 23.25 M43 23.25 C42.08 28.83, 39.63 31.82, 35.25 31 M43 23.25 C41.2 28.43, 38.18 29.34, 35.25 31 M35.25 31 C24.53 30.14, 15.11 32.77, 7.75 31 M35.25 31 C27.25 30, 19.88 31.84, 7.75 31 M7.75 31 C1.89 31.02, -0.1 27.53, 0 23.25 M7.75 31 C3.11 31.14, 2.29 30.43, 0 23.25 M0 23.25 C-1.2 18.39, -0.02 11.69, 0 7.75 M0 23.25 C0.63 18.65, -0.17 13.62, 0 7.75 M0 7.75 C0.53 2.28, 4.05 0.05, 7.75 0 M0 7.75 C1.79 0.74, 1.96 0.79, 7.75 0" stroke="#1971c2" stroke-width="2" fill="none"></path></g><g transform="translate(1145.4300155639648 200.04165172576904) rotate(0 75.64994049072266 12.5)"><text x="0" y="0" font-family="Virgil, Segoe UI Emoji" font-size="20px" fill="#1e1e1e" text-anchor="start" style="white-space: pre;" direction="ltr" dominant-baseline="text-before-edge">Test IP Fabric</text></g><g stroke-linecap="round" transform="translate(1074.9999618530273 244.16663646697998) rotate(0 21.500015258789062 15.500020980834961)"><path d="M7.75 0 C15.64 -0.41, 25.38 -3.28, 35.25 0 C37.83 0.68, 42.49 3.41, 43 7.75 C41.28 11.9, 40.39 18.07, 43 23.25 C40.66 25.44, 43.3 31.8, 35.25 31 C21.95 30.06, 17.18 31.22, 7.75 31 C4.15 32.1, -1.26 27.04, 0 23.25 C-1.86 19.06, 2.32 13.25, 0 7.75 C0.6 0.8, 4.71 0.77, 7.75 0" stroke="none" stroke-width="0" fill="#2f9e44"></path><path d="M7.75 0 C14.66 2.07, 19.73 -1.79, 35.25 0 M7.75 0 C16.17 -0.71, 22.7 -0.81, 35.25 0 M35.25 0 C41.32 -1.01, 41.85 0.72, 43 7.75 M35.25 0 C41.18 0.22, 41.12 2.86, 43 7.75 M43 7.75 C42.19 12.49, 43.44 13.63, 43 23.25 M43 7.75 C42.53 12.03, 42.59 16.3, 43 23.25 M43 23.25 C41.43 28.43, 38.47 29.56, 35.25 31 M43 23.25 C43.85 29.83, 40.29 29.33, 35.25 31 M35.25 31 C27.64 29.37, 20.11 30.29, 7.75 31 M35.25 31 C29.05 31.28, 23.49 30.83, 7.75 31 M7.75 31 C3.04 31.12, 1.99 30.16, 0 23.25 M7.75 31 C3.35 28.83, -0.91 26.42, 0 23.25 M0 23.25 C0.26 18.59, -0.64 14.67, 0 7.75 M0 23.25 C0.23 17.89, 0.6 12.78, 0 7.75 M0 7.75 C1.56 0.98, 2.04 0.68, 7.75 0 M0 7.75 C0.87 4.2, 1.97 1.4, 7.75 0" stroke="#2f9e44" stroke-width="2" fill="none"></path></g><g transform="translate(1136.3500671386719 247.16665744781494) rotate(0 63.289955139160156 12.5)"><text x="0" y="0" font-family="Virgil, Segoe UI Emoji" font-size="20px" fill="#1e1e1e" text-anchor="start" style="white-space: pre;" direction="ltr" dominant-baseline="text-before-edge">Out of Band</text></g><g stroke-linecap="round" transform="translate(10 554.166669845581) rotate(0 35.5000114440918 18.500003814697266)"><path d="M9.25 0 C23.24 -1.38, 37.4 0.43, 61.75 0 M9.25 0 C24.7 0.67, 42.27 -0.66, 61.75 0 M61.75 0 C69.65 0.42, 69.8 2.39, 71 9.25 M61.75 0 C66.31 -1.31, 69.94 3.56, 71 9.25 M71 9.25 C71.09 12.27, 69.74 19.57, 71 27.75 M71 9.25 C70.6 15.18, 71.81 22.37, 71 27.75 M71 27.75 C69.13 32.95, 66.97 35.26, 61.75 37 M71 27.75 C70.28 36.15, 67.12 37.03, 61.75 37 M61.75 37 C46.38 39.11, 32.52 37.78, 9.25 37 M61.75 37 C51.16 36.44, 39.38 36.7, 9.25 37 M9.25 37 C3.46 36.15, 1.71 34.68, 0 27.75 M9.25 37 C2.66 37.48, 0.61 33.56, 0 27.75 M0 27.75 C-1.48 20.34, 0.63 14.64, 0 9.25 M0 27.75 C0.69 20.18, 0.81 13.46, 0 9.25 M0 9.25 C0 1.58, 1.49 -1.43, 9.25 0 M0 9.25 C0.44 2.76, 3.61 0.27, 9.25 0" stroke="#1971c2" stroke-width="2" fill="none"></path></g><g transform="translate(19.970027923583984 560.1666736602783) rotate(0 25.529983520507812 12.5)"><text x="25.529983520507812" y="0" font-family="Virgil, Segoe UI Emoji" font-size="20px" fill="#1971c2" text-anchor="middle" style="white-space: pre;" direction="ltr" dominant-baseline="text-before-edge">qfx01</text></g><g stroke-linecap="round"><g transform="translate(133.00003051757812 561.1666774749756) rotate(0 -25.500011444091797 7.000007629394531)"><path d="M0.4 0.12 C-8.15 2.66, -43.25 11.68, -51.98 14.14 M-0.85 -0.87 C-8.97 1.99, -41.66 13.44, -49.78 15.76" stroke="#2f9e44" stroke-width="2" fill="none"></path></g></g><mask></mask><g stroke-linecap="round" transform="translate(304.19995880126953 10) rotate(0 50.80000305175781 28)"><path d="M14 0 C38.76 -1.01, 64.52 1.6, 87.6 0 M14 0 C31.11 -0.5, 48.71 -0.73, 87.6 0 M87.6 0 C96.01 0.41, 100.81 5.49, 101.6 14 M87.6 0 C95.13 0.02, 99.36 3.01, 101.6 14 M101.6 14 C100.32 22.58, 100.15 34.64, 101.6 42 M101.6 14 C100.86 20.79, 101.02 30.3, 101.6 42 M101.6 42 C100.91 51.36, 96.83 55.12, 87.6 56 M101.6 42 C102.12 51.47, 99.22 58.01, 87.6 56 M87.6 56 C61.34 56.1, 38.34 54.12, 14 56 M87.6 56 C65.21 56.07, 40.92 55.9, 14 56 M14 56 C5.2 55.69, 1.46 51.38, 0 42 M14 56 C6.46 54.16, -0.63 52.12, 0 42 M0 42 C1.02 33.93, -1.74 24.71, 0 14 M0 42 C-0.8 34.65, 0.19 28.59, 0 14 M0 14 C0.46 4.9, 4.31 -0.5, 14 0 M0 14 C-1.37 4.1, 2.55 0.54, 14 0" stroke="#1e1e1e" stroke-width="2" fill="none"></path></g><g transform="translate(333.35997772216797 28) rotate(0 21.639984130859375 10)"><text x="21.639984130859375" y="0" font-family="Virgil, Segoe UI Emoji" font-size="16px" fill="#1e1e1e" text-anchor="middle" style="white-space: pre;" direction="ltr" dominant-baseline="text-before-edge">Client</text></g><g stroke-linecap="round"><g transform="translate(354.0000534057617 66.00003051757812) rotate(0 0.49999237060546875 18.999996185302734)"><path d="M0.28 -0.33 C0.6 5.96, 1.41 31.76, 1.48 38.12 M-0.25 0.69 C0.08 6.77, 0.94 30.94, 1.29 37.21" stroke="#1e1e1e" stroke-width="2" fill="none"></path></g></g><mask></mask><g stroke-linecap="round" transform="translate(770.9648017883301 91.85842037200837) rotate(0 49.2000732421875 17.5)"><path d="M8.75 0 C28.21 1.05, 45.72 -1.75, 89.65 0 M8.75 0 C27.06 -0.26, 45.39 -1.05, 89.65 0 M89.65 0 C94.72 -0.92, 97.43 1.45, 98.4 8.75 M89.65 0 C93.84 -0.21, 100.2 1.17, 98.4 8.75 M98.4 8.75 C98.69 14.19, 98.15 19.05, 98.4 26.25 M98.4 8.75 C97.88 15.02, 98.44 22.06, 98.4 26.25 M98.4 26.25 C98.63 30.52, 95.38 36.56, 89.65 35 M98.4 26.25 C99.93 31.65, 95.11 33.38, 89.65 35 M89.65 35 C62.62 33.05, 38.87 34.12, 8.75 35 M89.65 35 C66 34.24, 41.66 34.34, 8.75 35 M8.75 35 C3.79 34.5, -0.99 32.61, 0 26.25 M8.75 35 C3.47 36.55, 2.11 31.33, 0 26.25 M0 26.25 C0.54 17.94, 1.5 11.08, 0 8.75 M0 26.25 C0.32 20.07, -0.51 15.14, 0 8.75 M0 8.75 C1.44 1.56, 3.33 1.15, 8.75 0 M0 8.75 C-0.94 4.84, 2.45 0.17, 8.75 0" stroke="#f08c00" stroke-width="2" fill="none"></path></g><g transform="translate(795.0448875427246 96.85842037200837) rotate(0 25.11998748779297 12.5)"><text x="25.11998748779297" y="0" font-family="Virgil, Segoe UI Emoji" font-size="20px" fill="#f08c00" text-anchor="middle" style="white-space: pre;" direction="ltr" dominant-baseline="text-before-edge">vLWC</text></g><g stroke-linecap="round"><g transform="translate(799.8283699762319 125.73744699804865) rotate(0 -11.563643022017061 15.818174188787225)"><path d="M1.1 -0.39 C-2.62 4.87, -17.88 26.99, -22.04 32.4 M0.22 -1.64 C-3.59 3.21, -18.82 25.41, -22.41 30.68" stroke="#f08c00" stroke-width="2" fill="none"></path></g></g><mask></mask><g stroke-linecap="round"><g transform="translate(708.6376755454324 107.21288204193024) rotate(0 23.272732821377815 0.3636446866121332)"><path d="M0.41 -0.12 C8.3 0.08, 39.28 0.93, 47.06 1.09 M-0.04 -0.66 C7.84 -0.6, 39.05 0.22, 46.89 0.32" stroke="#e03131" stroke-width="2" fill="none"></path></g><g transform="translate(708.6376755454324 107.21288204193024) rotate(0 23.272732821377815 0.3636446866121332)"><path d="M24.87 7.84 C30.17 6.81, 36.56 4.95, 46.89 0.32 M24.87 7.84 C32.41 5.23, 39.23 2.52, 46.89 0.32" stroke="#e03131" stroke-width="2" fill="none"></path></g><g transform="translate(708.6376755454324 107.21288204193024) rotate(0 23.272732821377815 0.3636446866121332)"><path d="M25.19 -8.08 C30.39 -5.12, 36.71 -3, 46.89 0.32 M25.19 -8.08 C32.69 -5.45, 39.41 -2.91, 46.89 0.32" stroke="#e03131" stroke-width="2" fill="none"></path></g></g><mask></mask><g transform="translate(653.3649593700063 92.6674552397285) rotate(0 20.639991760253906 12.5)"><text x="0" y="0" font-family="Virgil, Segoe UI Emoji" font-size="20px" fill="#e03131" text-anchor="start" style="white-space: pre;" direction="ltr" dominant-baseline="text-before-edge">NEW</text></g></svg>