<svg version="1.1" xmlns="http://www.w3.org/2000/svg" viewBox="0 0 1046.4198913574219 591.3000335693359" width="1046.4198913574219" height="591.3000335693359">
  <!-- svg-source:excalidraw -->
  
  <defs>
    <style class="style-fonts">
      @font-face {
        font-family: "Virgil";
        src: url("https://excalidraw.com/Virgil.woff2");
      }
      @font-face {
        font-family: "Cascadia";
        src: url("https://excalidraw.com/Cascadia.woff2");
      }
      @font-face {
        font-family: "Assistant";
        src: url("https://excalidraw.com/Assistant-Regular.woff2");
      }
    </style>
    
  </defs>
  <rect x="0" y="0" width="1046.4198913574219" height="591.3000335693359" fill="#ffffff"></rect><g stroke-linecap="round" transform="translate(167.3299560546875 10) rotate(0 347.6000213623047 82.4000015258789)"><path d="M32 0 C216.02 0.73, 399.97 0.14, 663.2 0 M32 0 C228.15 -0.21, 424.98 -0.52, 663.2 0 M663.2 0 C683.65 0.82, 696.2 12.56, 695.2 32 M663.2 0 C686.63 -1.78, 694.35 8.54, 695.2 32 M695.2 32 C694.15 55.47, 695.6 77.87, 695.2 132.8 M695.2 32 C696.1 66.78, 694.45 101.56, 695.2 132.8 M695.2 132.8 C697.1 153.55, 683.87 164.33, 663.2 164.8 M695.2 132.8 C693.49 155.08, 686.34 165.74, 663.2 164.8 M663.2 164.8 C499.78 163.22, 336.44 163.42, 32 164.8 M663.2 164.8 C529 162.91, 395.54 162.57, 32 164.8 M32 164.8 C10.59 163.75, -0.18 152.63, 0 132.8 M32 164.8 C10.84 166.85, -1.74 154.45, 0 132.8 M0 132.8 C2.35 103.44, 1.34 75.35, 0 32 M0 132.8 C1.37 93.72, 1.68 53.06, 0 32 M0 32 C0.7 8.72, 11.18 0.45, 32 0 M0 32 C1.92 11.51, 8.49 -1.92, 32 0" stroke="#1e1e1e" stroke-width="2" fill="none"></path></g><g transform="translate(458.7299499511719 146.7999725341797) rotate(0 97.58993530273438 12.5)"><text x="0" y="0" font-family="Virgil, Segoe UI Emoji" font-size="20px" fill="#1e1e1e" text-anchor="start" style="white-space: pre;" direction="ltr" dominant-baseline="text-before-edge">Internet / Underlay</text></g><g stroke-linecap="round" transform="translate(32.129974365234375 405.20008850097656) rotate(0 205.1999969482422 19.60003662109375)"><path d="M9.8 0 C138.34 -2.4, 265.68 -1.59, 400.6 0 M9.8 0 C111.32 2.51, 213.56 1.75, 400.6 0 M400.6 0 C409.1 -1.54, 410.28 2.85, 410.4 9.8 M400.6 0 C409.05 -1.87, 408.64 4.51, 410.4 9.8 M410.4 9.8 C408.52 13.19, 410.09 17.13, 410.4 29.4 M410.4 9.8 C410.49 15.09, 410.31 20.01, 410.4 29.4 M410.4 29.4 C410.4 36.6, 408.21 40.2, 400.6 39.2 M410.4 29.4 C411.72 34.87, 408.8 38.47, 400.6 39.2 M400.6 39.2 C270.46 38.97, 143.18 38.76, 9.8 39.2 M400.6 39.2 C286.16 40.85, 170.92 41.07, 9.8 39.2 M9.8 39.2 C2.18 40.88, -1 36.18, 0 29.4 M9.8 39.2 C2.08 41.05, 1.28 36.58, 0 29.4 M0 29.4 C1.36 22.45, -0.71 18.48, 0 9.8 M0 29.4 C0.5 25.07, 0.21 20.79, 0 9.8 M0 9.8 C-0.31 3.12, 5.07 0.08, 9.8 0 M0 9.8 C0.91 3.09, 4.33 -1.94, 9.8 0" stroke="#2f9e44" stroke-width="2" fill="none"></path></g><g transform="translate(184.52999877929688 412.3001251220703) rotate(0 52.79997253417969 12.5)"><text x="52.79997253417969" y="0" font-family="Virgil, Segoe UI Emoji" font-size="20px" fill="#2f9e44" text-anchor="middle" style="white-space: pre;" direction="ltr" dominant-baseline="text-before-edge">10.1.0.0/24</text></g><g stroke-linecap="round" transform="translate(595.9300384521484 403.99989318847656) rotate(0 205.1999969482422 19.60003662109375)"><path d="M9.8 0 C141.5 -1.57, 275.3 -0.2, 400.6 0 M9.8 0 C122.89 0.78, 234.69 1.43, 400.6 0 M400.6 0 C406.92 0.96, 409.37 4.36, 410.4 9.8 M400.6 0 C406.6 -1.6, 411.25 5.32, 410.4 9.8 M410.4 9.8 C411.81 16.46, 410.04 21.98, 410.4 29.4 M410.4 9.8 C410.69 16.69, 410.63 25.96, 410.4 29.4 M410.4 29.4 C409 37.4, 406.04 39.93, 400.6 39.2 M410.4 29.4 C409.05 36.36, 407.3 40.87, 400.6 39.2 M400.6 39.2 C257.91 39.69, 115.01 38.96, 9.8 39.2 M400.6 39.2 C249.42 37.59, 98.11 36.96, 9.8 39.2 M9.8 39.2 C2.37 38.51, 0.65 35.72, 0 29.4 M9.8 39.2 C4 37.82, 0.38 36.27, 0 29.4 M0 29.4 C1.79 26.06, -1.38 21.02, 0 9.8 M0 29.4 C0.51 25.42, 0.84 19.81, 0 9.8 M0 9.8 C-1.89 4.05, 4.42 -0.98, 9.8 0 M0 9.8 C-1.88 5.37, 4.9 0.09, 9.8 0" stroke="#1971c2" stroke-width="2" fill="none"></path></g><g transform="translate(743.9200668334961 411.0999298095703) rotate(0 57.20996856689453 12.5)"><text x="57.20996856689453" y="0" font-family="Virgil, Segoe UI Emoji" font-size="20px" fill="#1971c2" text-anchor="middle" style="white-space: pre;" direction="ltr" dominant-baseline="text-before-edge">10.2.0.0/24</text></g><g stroke-linecap="round" transform="translate(143.3299560546875 258.0000457763672) rotate(0 94.00001525878906 60)"><path d="M118.75 15.25 C129.41 23.15, 137.39 30.57, 164.25 45.75 M118.75 15.25 C128.46 22.36, 137.2 28.78, 164.25 45.75 M164.25 45.75 C186.28 62, 188.33 59, 164.25 76.25 M164.25 45.75 C189.77 60.74, 188.33 59.98, 164.25 76.25 M164.25 76.25 C150.55 85.83, 133.07 95.98, 118.75 104.75 M164.25 76.25 C148.32 87.26, 131.97 96.33, 118.75 104.75 M118.75 104.75 C94.75 118.94, 96.02 118.28, 71.25 104.75 M118.75 104.75 C96.8 117.75, 92.89 122.27, 71.25 104.75 M71.25 104.75 C58.92 97.34, 43.87 88.2, 23.75 76.25 M71.25 104.75 C53.47 95.16, 35.23 83.48, 23.75 76.25 M23.75 76.25 C0.77 62.55, -0.81 62.68, 23.75 45.75 M23.75 76.25 C0.23 61.53, -0.05 59.42, 23.75 45.75 M23.75 45.75 C36.18 35.82, 50.42 28.04, 71.25 15.25 M23.75 45.75 C37.06 35.79, 50.39 28.27, 71.25 15.25 M71.25 15.25 C93.27 1.05, 95.75 0.05, 118.75 15.25 M71.25 15.25 C95.78 -0.97, 95.57 0.2, 118.75 15.25" stroke="#2f9e44" stroke-width="2" fill="none"></path></g><g transform="translate(195.385986328125 298.0000457763672) rotate(0 41.94397735595703 20)"><text x="41.94397735595703" y="0" font-family="Virgil, Segoe UI Emoji" font-size="16px" fill="#2f9e44" text-anchor="middle" style="white-space: pre;" direction="ltr" dominant-baseline="text-before-edge">OPNSense </text><text x="41.94397735595703" y="20" font-family="Virgil, Segoe UI Emoji" font-size="16px" fill="#2f9e44" text-anchor="middle" style="white-space: pre;" direction="ltr" dominant-baseline="text-before-edge">A</text></g><g stroke-linecap="round" transform="translate(707.1300201416016 264.59999084472656) rotate(0 94.00001525878906 60)"><path d="M118.75 15.25 C133.3 24.46, 147.77 31.35, 164.25 45.75 M118.75 15.25 C127.85 21.37, 137.65 28.27, 164.25 45.75 M164.25 45.75 C186.39 60.61, 186.8 61.35, 164.25 76.25 M164.25 45.75 C186.04 60.25, 186.39 60.77, 164.25 76.25 M164.25 76.25 C154.44 82.55, 141.69 90.92, 118.75 104.75 M164.25 76.25 C154.4 82.68, 145.16 87.93, 118.75 104.75 M118.75 104.75 C96.58 121.45, 95.96 119.52, 71.25 104.75 M118.75 104.75 C94.41 119.3, 96.7 120.91, 71.25 104.75 M71.25 104.75 C53.58 94.73, 38.01 86.17, 23.75 76.25 M71.25 104.75 C60.83 98.78, 48.11 91.94, 23.75 76.25 M23.75 76.25 C-1.85 62.46, 0.02 62.42, 23.75 45.75 M23.75 76.25 C-2.07 62.52, -0.34 59.12, 23.75 45.75 M23.75 45.75 C35.17 36.41, 50.93 28.98, 71.25 15.25 M23.75 45.75 C35.28 39.29, 46.28 30.92, 71.25 15.25 M71.25 15.25 C93.78 -0.72, 95.44 -0.19, 118.75 15.25 M71.25 15.25 C94.29 1.53, 94.28 1.66, 118.75 15.25" stroke="#1971c2" stroke-width="2" fill="none"></path></g><g transform="translate(759.1860504150391 304.59999084472656) rotate(0 41.94397735595703 20)"><text x="41.94397735595703" y="0" font-family="Virgil, Segoe UI Emoji" font-size="16px" fill="#1971c2" text-anchor="middle" style="white-space: pre;" direction="ltr" dominant-baseline="text-before-edge">OPNSense </text><text x="41.94397735595703" y="20" font-family="Virgil, Segoe UI Emoji" font-size="16px" fill="#1971c2" text-anchor="middle" style="white-space: pre;" direction="ltr" dominant-baseline="text-before-edge">B</text></g><g stroke-linecap="round" transform="translate(186.52996826171875 516.7000274658203) rotate(0 50.80000305175781 28)"><path d="M14 0 C35.27 1.81, 61.52 -0.01, 87.6 0 M14 0 C40.12 0.51, 68.02 0.35, 87.6 0 M87.6 0 C96.84 0.14, 99.89 4.64, 101.6 14 M87.6 0 C97.16 0.96, 101.42 6.1, 101.6 14 M101.6 14 C101.4 19.88, 101.37 25.71, 101.6 42 M101.6 14 C102.13 19.16, 101.32 24.5, 101.6 42 M101.6 42 C101.24 51.72, 98.08 56.91, 87.6 56 M101.6 42 C103.3 52.23, 95.87 56.71, 87.6 56 M87.6 56 C63.92 56.05, 42.75 56.32, 14 56 M87.6 56 C72.01 55.74, 55.51 56.18, 14 56 M14 56 C5.16 54.95, -0.15 52.42, 0 42 M14 56 C2.94 56.59, -2.27 51.37, 0 42 M0 42 C-0.58 36.32, 1.7 28.47, 0 14 M0 42 C-0.24 33.77, -0.42 24.63, 0 14 M0 14 C0.9 4.3, 5.82 1.62, 14 0 M0 14 C0.71 5.96, 5.82 1.4, 14 0" stroke="#2f9e44" stroke-width="2" fill="none"></path></g><g transform="translate(210.83399200439453 534.7000274658203) rotate(0 26.49597930908203 10)"><text x="26.49597930908203" y="0" font-family="Virgil, Segoe UI Emoji" font-size="16px" fill="#2f9e44" text-anchor="middle" style="white-space: pre;" direction="ltr" dominant-baseline="text-before-edge">host A</text></g><g stroke-linecap="round" transform="translate(750.3300323486328 525.3000335693359) rotate(0 50.80000305175781 28)"><path d="M14 0 C38.97 -1.45, 62.27 -1.92, 87.6 0 M14 0 C36.84 -0.57, 58.75 0.57, 87.6 0 M87.6 0 C96.25 -0.11, 101.34 3.24, 101.6 14 M87.6 0 C96.31 0.03, 100.56 2.64, 101.6 14 M101.6 14 C103.16 24.28, 102.67 34.32, 101.6 42 M101.6 14 C101.78 23.74, 101.33 34.68, 101.6 42 M101.6 42 C100.03 53.07, 96.72 55.67, 87.6 56 M101.6 42 C101.74 51.64, 96.78 57.24, 87.6 56 M87.6 56 C65.24 54.53, 45.39 57.04, 14 56 M87.6 56 C71.28 56.74, 53.18 56.62, 14 56 M14 56 C4.44 54.18, -1 50.08, 0 42 M14 56 C3.82 55.19, 1.93 50.19, 0 42 M0 42 C1.17 33.16, 0.17 21.6, 0 14 M0 42 C-0.05 35.81, 0.13 29.57, 0 14 M0 14 C1.46 6.28, 3.55 -0.59, 14 0 M0 14 C-2.27 5.4, 4.3 -2.12, 14 0" stroke="#1971c2" stroke-width="2" fill="none"></path></g><g transform="translate(774.0660552978516 543.3000335693359) rotate(0 27.063980102539062 10)"><text x="27.063980102539062" y="0" font-family="Virgil, Segoe UI Emoji" font-size="16px" fill="#1971c2" text-anchor="middle" style="white-space: pre;" direction="ltr" dominant-baseline="text-before-edge">host B</text></g><g stroke-linecap="round"><g transform="translate(234.20565444774002 518.3000640869141) rotate(0 3.1999969482421875 -36.00001525878906)"><path d="M1.17 1.07 C2.08 -10.81, 4.89 -59.16, 5.93 -71.25 M0.32 0.58 C0.99 -11.64, 3.6 -60.62, 4.73 -72.97" stroke="#2f9e44" stroke-width="2" fill="none"></path></g></g><mask></mask><g stroke-linecap="round"><g transform="translate(236.232365762624 373.50010681152344) rotate(0 0 14.799972534179688)"><path d="M-0.54 -0.52 C-0.62 4.53, -0.53 24.96, -0.39 30.01 M0.18 0.4 C0.27 5.33, 0.65 24.51, 0.65 29.26" stroke="#2f9e44" stroke-width="2" fill="none"></path></g></g><mask></mask><g stroke-linecap="round"><g transform="translate(239.3299560546875 260.6999969482422) rotate(0 -4.0000152587890625 -42.00000762939453)"><path d="M-1.18 -0.92 C-2.53 -14.77, -7.97 -69.5, -9.17 -83.54 M0.4 1.21 C-0.5 -12.96, -5.45 -71.15, -7.07 -85.43" stroke="#1e1e1e" stroke-width="2" fill="none"></path></g></g><mask></mask><g stroke-linecap="round"><g transform="translate(800.9299621582031 265.49998474121094) rotate(0 -10.79998779296875 -45.19999694824219)"><path d="M-1.16 0.65 C-4.65 -14.46, -17.79 -75.58, -21.33 -90.64 M0.43 -0.05 C-3.15 -14.98, -18.74 -73.95, -22.13 -89.22" stroke="#1e1e1e" stroke-width="2" fill="none"></path></g></g><mask></mask><g stroke-linecap="round"><g transform="translate(801.8239639563963 382.30006408691406) rotate(0 1.199951171875 11.199966430664062)"><path d="M0.08 -0.22 C0.45 3.61, 2.27 18.9, 2.58 22.72 M-0.54 -0.8 C-0.27 2.89, 1.64 18.16, 2.24 21.92" stroke="#1971c2" stroke-width="2" fill="none"></path></g></g><mask></mask><g stroke-linecap="round"><g transform="translate(802.3557947345391 526.3000335693359) rotate(0 0.39990234375 -39.99998474121094)"><path d="M0.66 -1.02 C0.96 -14.22, 1.4 -65.98, 1.42 -79.31 M-0.45 1.06 C-0.22 -12.47, 0.72 -67.53, 0.8 -81.07" stroke="#1971c2" stroke-width="2" fill="none"></path></g></g><mask></mask><g stroke-linecap="round" transform="translate(145.32994079589844 51.49998798370359) rotate(0 372.00001525878906 16.800003051757812)"><path d="M8.4 0 C156.6 -1.11, 305.35 -1.56, 735.6 0 M735.6 0 C739.8 -1.4, 743.64 1.69, 744 8.4 M744 8.4 C744.76 12.39, 745.24 15.24, 744 25.2 M744 25.2 C743.7 29.96, 741.39 33.84, 735.6 33.6 M735.6 33.6 C539.11 33.74, 344.18 34.84, 8.4 33.6 M8.4 33.6 C3.35 33.25, 1.47 32.75, 0 25.2 M0 25.2 C-0.73 19.26, 1.51 14.54, 0 8.4 M0 8.4 C-1.27 3.16, 1.63 -0.22, 8.4 0" stroke="#1e1e1e" stroke-width="2.5" fill="none" stroke-dasharray="8 10"></path></g><g transform="translate(430.7299499511719 56.19998493194581) rotate(0 153.59988403320312 12.5)"><text x="0" y="0" font-family="Virgil, Segoe UI Emoji" font-size="20px" fill="#1e1e1e" text-anchor="start" style="white-space: pre;" direction="ltr" dominant-baseline="text-before-edge">Zerotier overlay (172.16.1.0/24)</text></g><g stroke-linecap="round"><g transform="translate(148.12994384765625 320.30000629425047) rotate(0 -55.600006103515625 -120.40000152587889)"><path d="M-0.35 -0.85 C-19 -24.44, -110.78 -102.46, -110.83 -142.54 C-110.87 -182.62, -18.85 -224.93, -0.64 -241.31" stroke="#1971c2" stroke-width="2.5" fill="none" stroke-dasharray="8 10"></path></g></g><mask></mask><g stroke-linecap="round"><g transform="translate(888.9299621582031 326.70000019073484) rotate(0 52.4000244140625 -119.99999999999999)"><path d="M-0.98 -0.66 C17.58 -23.91, 112.01 -99.25, 110.83 -139.06 C109.65 -178.86, 11.63 -222.74, -8.07 -239.48" stroke="#1971c2" stroke-width="2.5" fill="none" stroke-dasharray="8 10"></path></g></g><mask></mask><g transform="translate(248.12997436523438 231.59999713897707) rotate(0 66.72994995117188 12.5)"><text x="0" y="0" font-family="Virgil, Segoe UI Emoji" font-size="20px" fill="#f08c00" text-anchor="start" style="white-space: pre;" direction="ltr" dominant-baseline="text-before-edge">&lt;Public IP A&gt;</text></g><g transform="translate(650.7999877929688 234.09999713897707) rotate(0 67.43994903564453 12.5)"><text x="0" y="0" font-family="Virgil, Segoe UI Emoji" font-size="20px" fill="#f08c00" text-anchor="start" style="white-space: pre;" direction="ltr" dominant-baseline="text-before-edge">&lt;Public IP B&gt;</text></g><g transform="translate(10 318.6999727249146) rotate(0 63.359962463378906 12.5)"><text x="0" y="0" font-family="Virgil, Segoe UI Emoji" font-size="20px" fill="#f08c00" text-anchor="start" style="white-space: pre;" direction="ltr" dominant-baseline="text-before-edge">172.16.1.10/24</text></g><g transform="translate(900.8799743652344 325.49999103546145) rotate(0 67.76995849609375 12.5)"><text x="0" y="0" font-family="Virgil, Segoe UI Emoji" font-size="20px" fill="#f08c00" text-anchor="start" style="white-space: pre;" direction="ltr" dominant-baseline="text-before-edge">172.16.1.20/24</text></g><g transform="translate(250.56999969482422 369.80000591278076) rotate(0 48.629974365234375 12.5)"><text x="0" y="0" font-family="Virgil, Segoe UI Emoji" font-size="20px" fill="#f08c00" text-anchor="start" style="white-space: pre;" direction="ltr" dominant-baseline="text-before-edge">10.1.0.1/24</text></g><g transform="translate(655.5599670410156 372.39998149871826) rotate(0 53.03997039794922 12.5)"><text x="0" y="0" font-family="Virgil, Segoe UI Emoji" font-size="20px" fill="#f08c00" text-anchor="start" style="white-space: pre;" direction="ltr" dominant-baseline="text-before-edge">10.2.0.1/24</text></g><g transform="translate(248.5 478.39998149871826) rotate(0 55.509971618652344 12.5)"><text x="0" y="0" font-family="Virgil, Segoe UI Emoji" font-size="20px" fill="#2f9e44" text-anchor="start" style="white-space: pre;" direction="ltr" dominant-baseline="text-before-edge">10.1.0.10/24</text></g><g transform="translate(825.819953918457 483.4000120162964) rotate(0 59.91996765136719 12.5)"><text x="0" y="0" font-family="Virgil, Segoe UI Emoji" font-size="20px" fill="#2f9e44" text-anchor="start" style="white-space: pre;" direction="ltr" dominant-baseline="text-before-edge">10.2.0.10/24</text></g></svg>