<svg version="1.1" xmlns="http://www.w3.org/2000/svg" viewBox="0 0 1306.7298965454102 747.5167064666748" width="1306.7298965454102" height="747.5167064666748">
  <!-- svg-source:excalidraw -->
  
  <defs>
    <style class="style-fonts">
      @font-face {
        font-family: "Virgil";
        src: url("https://excalidraw.com/Virgil.woff2");
      }
      @font-face {
        font-family: "Cascadia";
        src: url("https://excalidraw.com/Cascadia.woff2");
      }
      @font-face {
        font-family: "Assistant";
        src: url("https://excalidraw.com/Assistant-Regular.woff2");
      }
    </style>
    
  </defs>
  <rect x="0" y="0" width="1306.7298965454102" height="747.5167064666748" fill="#ffffff"></rect><g stroke-linecap="round" transform="translate(72.2000503540039 256.8666744232178) rotate(0 136.00001525878906 89.60003662109375)"><path d="M196.18 9.04 C210.18 12.09, 222.62 20.45, 233.47 27.78 C244.32 35.12, 254.86 43.61, 261.3 53.04 C267.74 62.48, 271.09 74.25, 272.11 84.39 C273.12 94.53, 271.8 104.23, 267.38 113.88 C262.96 123.52, 255.01 133.87, 245.57 142.26 C236.13 150.66, 223.67 158.51, 210.73 164.24 C197.78 169.97, 182.79 174.09, 167.89 176.63 C153 179.17, 136.72 180.58, 121.36 179.47 C105.99 178.36, 89.62 174.66, 75.71 169.97 C61.81 165.28, 48.48 158.6, 37.92 151.34 C27.35 144.09, 18.5 135.62, 12.33 126.44 C6.15 117.25, 1.86 106.77, 0.88 96.25 C-0.1 85.74, 2.03 73.36, 6.43 63.36 C10.84 53.35, 18.2 44.36, 27.31 36.22 C36.42 28.09, 48.37 20.31, 61.09 14.54 C73.82 8.78, 88.62 4.08, 103.68 1.63 C118.73 -0.81, 135.43 -1.59, 151.44 -0.13 C167.45 1.33, 191.56 8.23, 199.75 10.37 C207.94 12.52, 201.62 11.34, 200.59 12.74" stroke="#1971c2" stroke-width="2.5" fill="none" stroke-dasharray="8 10"></path></g><g transform="translate(161.97356554081364 334.109917554973) rotate(0 46.059967041015625 12.5)"><text x="46.059967041015625" y="0" font-family="Virgil, Segoe UI Emoji" font-size="20px" fill="#1971c2" text-anchor="middle" style="white-space: pre;" direction="ltr" dominant-baseline="text-before-edge">IP Fabric</text></g><g stroke-linecap="round" transform="translate(128.39995574951172 447.2667293548584) rotate(0 136.00001525878906 89.60003662109375)"><path d="M117.22 0.26 C131.72 -2.44, 148.9 0.3, 164.12 2.33 C179.33 4.35, 195.37 7.21, 208.51 12.43 C221.64 17.65, 233.56 25.47, 242.91 33.67 C252.26 41.86, 259.79 51.82, 264.6 61.59 C269.42 71.37, 272.11 81.97, 271.81 92.31 C271.51 102.66, 268.48 114.14, 262.78 123.65 C257.07 133.17, 247.93 141.92, 237.58 149.39 C227.24 156.86, 214.24 163.5, 200.71 168.48 C187.18 173.45, 171.71 177.58, 156.41 179.22 C141.1 180.86, 124.05 180.72, 108.87 178.32 C93.69 175.91, 78.46 170.39, 65.31 164.81 C52.16 159.22, 39.65 152.76, 29.97 144.82 C20.28 136.88, 12.25 127, 7.22 117.19 C2.18 107.38, -0.71 96.2, -0.24 85.95 C0.23 75.7, 4.19 65.03, 10.02 55.69 C15.86 46.35, 24.61 37.46, 34.77 29.91 C44.93 22.35, 56 15.2, 70.98 10.36 C85.96 5.51, 114.35 2.29, 124.64 0.83 C134.93 -0.64, 132.53 0.01, 132.72 1.55" stroke="#2f9e44" stroke-width="2.5" fill="none" stroke-dasharray="8 10"></path></g><g transform="translate(234.78345628788395 524.5099724866136) rotate(0 29.449981689453125 12.5)"><text x="29.449981689453125" y="0" font-family="Virgil, Segoe UI Emoji" font-size="20px" fill="#2f9e44" text-anchor="middle" style="white-space: pre;" direction="ltr" dominant-baseline="text-before-edge">OOBM</text></g><g stroke-linecap="round" transform="translate(587.7999801635742 153.86663627624512) rotate(0 136.00001525878906 89.60003662109375)"><path d="M92.76 3.86 C105.95 -0.78, 123.34 -0.83, 138.59 -0.47 C153.85 -0.11, 169.86 2.27, 184.3 6.01 C198.73 9.75, 213.34 15.14, 225.2 21.99 C237.07 28.83, 247.94 38.1, 255.49 47.06 C263.04 56.03, 268.1 65.83, 270.5 75.78 C272.89 85.72, 272.69 96.56, 269.85 106.72 C267.01 116.89, 261.4 127.84, 253.44 136.77 C245.48 145.69, 234.15 154.19, 222.09 160.29 C210.03 166.39, 195.69 170.27, 181.06 173.38 C166.42 176.49, 149.87 179.06, 134.28 178.96 C118.7 178.86, 102.17 176.56, 87.52 172.78 C72.87 168.99, 58.07 163.02, 46.37 156.27 C34.66 149.52, 24.73 141.07, 17.31 132.27 C9.89 123.48, 4.44 113.55, 1.86 103.52 C-0.72 93.49, -1.16 82.05, 1.84 72.11 C4.84 62.17, 11.65 52.61, 19.87 43.87 C28.08 35.12, 36.74 26.43, 51.11 19.63 C65.47 12.83, 94.71 6.09, 106.06 3.06 C117.41 0.02, 118.86 0.06, 119.22 1.41" stroke="#f08c00" stroke-width="2.5" fill="none" stroke-dasharray="8 10"></path></g><g transform="translate(660.3635038953058 218.60987940800032) rotate(0 63.26995849609375 25)"><text x="63.26995849609375" y="0" font-family="Virgil, Segoe UI Emoji" font-size="20px" fill="#f08c00" text-anchor="middle" style="white-space: pre;" direction="ltr" dominant-baseline="text-before-edge">Management </text><text x="63.26995849609375" y="25" font-family="Virgil, Segoe UI Emoji" font-size="20px" fill="#f08c00" text-anchor="middle" style="white-space: pre;" direction="ltr" dominant-baseline="text-before-edge">Elements</text></g><g stroke-linecap="round" transform="translate(396.19995880126953 308.066686630249) rotate(0 91.60000610351562 68.79998779296875)"><path d="M115 17.25 C127.51 23.13, 136.44 32.21, 160.2 51.75 M115 17.25 C125.94 26.17, 137.8 34.22, 160.2 51.75 M160.2 51.75 C183.41 69.75, 183.07 70.87, 160.2 86.25 M160.2 51.75 C185.36 70.4, 185.5 71.1, 160.2 86.25 M160.2 86.25 C152.07 92.19, 141.5 98.23, 115 120.35 M160.2 86.25 C144.93 96.99, 129.61 109.38, 115 120.35 M115 120.35 C92.99 138.77, 91.44 138.33, 69 120.35 M115 120.35 C93.85 135.36, 89.71 136.49, 69 120.35 M69 120.35 C52.72 110.03, 37.54 100.46, 23 86.25 M69 120.35 C54.91 108.26, 38.83 97.2, 23 86.25 M23 86.25 C0.84 69.11, -0.42 69.47, 23 51.75 M23 86.25 C-0.9 70.71, -2.16 68.88, 23 51.75 M23 51.75 C41.06 37.56, 56.74 25.45, 69 17.25 M23 51.75 C32.15 43.95, 43.33 37.18, 69 17.25 M69 17.25 C90.71 -1.14, 93.91 -1.93, 115 17.25 M69 17.25 C92.85 1.77, 92.54 -1.43, 115 17.25" stroke="#f08c00" stroke-width="2" fill="none"></path></g><g transform="translate(450.7099914550781 351.9666805267334) rotate(0 37.28997039794922 25)"><text x="37.28997039794922" y="0" font-family="Virgil, Segoe UI Emoji" font-size="20px" fill="#f08c00" text-anchor="middle" style="white-space: pre;" direction="ltr" dominant-baseline="text-before-edge">Virtual </text><text x="37.28997039794922" y="25" font-family="Virgil, Segoe UI Emoji" font-size="20px" fill="#f08c00" text-anchor="middle" style="white-space: pre;" direction="ltr" dominant-baseline="text-before-edge">Firewall</text></g><g stroke-linecap="round" transform="translate(602.3998947143555 360.6666622161865) rotate(0 136.00001525878906 89.60003662109375)"><path d="M138.17 0.83 C152.97 -0.43, 169.76 2.43, 184.25 5.89 C198.74 9.36, 213.2 14.82, 225.09 21.62 C236.97 28.42, 247.93 37.62, 255.55 46.71 C263.18 55.8, 268.33 66.38, 270.83 76.14 C273.33 85.9, 273.39 95.46, 270.54 105.29 C267.69 115.12, 261.73 126.26, 253.72 135.13 C245.72 144, 234.69 152.15, 222.51 158.51 C210.32 164.87, 195.26 169.95, 180.62 173.28 C165.97 176.62, 150.05 178.49, 134.63 178.51 C119.21 178.53, 102.78 176.95, 88.1 173.4 C73.43 169.85, 58.33 163.79, 46.6 157.21 C34.88 150.63, 25.12 142.83, 17.75 133.92 C10.38 125.02, 4.87 113.81, 2.37 103.78 C-0.13 93.75, 0.11 83.9, 2.74 73.75 C5.36 63.59, 10.32 51.72, 18.1 42.84 C25.88 33.96, 37.22 26.64, 49.4 20.47 C61.59 14.3, 75.85 9.17, 91.23 5.8 C106.61 2.43, 132.55 0.73, 141.67 0.25 C150.79 -0.22, 145.89 1.62, 145.95 2.94" stroke="#f08c00" stroke-width="2.5" fill="none" stroke-dasharray="8 10"></path></g><g transform="translate(682.3934340100519 437.90990534794173) rotate(0 55.839942932128906 12.5)"><text x="55.839942932128906" y="0" font-family="Virgil, Segoe UI Emoji" font-size="20px" fill="#f08c00" text-anchor="middle" style="white-space: pre;" direction="ltr" dominant-baseline="text-before-edge">Jump Hosts</text></g><g stroke-linecap="round" transform="translate(889.7999954223633 216.06669425964355) rotate(0 49.2000732421875 17.5)"><path d="M8.75 0 C34.17 1.69, 57.99 0.25, 89.65 0 M8.75 0 C37.01 -0.15, 64.38 0.15, 89.65 0 M89.65 0 C93.55 1.59, 97.94 3.7, 98.4 8.75 M89.65 0 C94.47 -0.7, 96.36 3.66, 98.4 8.75 M98.4 8.75 C97.23 12.27, 99.08 17.72, 98.4 26.25 M98.4 8.75 C99.05 14.17, 97.48 20.88, 98.4 26.25 M98.4 26.25 C98.84 32.38, 97.02 33.58, 89.65 35 M98.4 26.25 C98.76 30.04, 97.46 35.66, 89.65 35 M89.65 35 C70.95 35.1, 54.05 36.42, 8.75 35 M89.65 35 C64.53 35.93, 39.25 35.14, 8.75 35 M8.75 35 C4.05 35.94, 1.08 33.89, 0 26.25 M8.75 35 C1.04 36.26, -1.66 30.02, 0 26.25 M0 26.25 C-1.33 22.79, -0.48 14.8, 0 8.75 M0 26.25 C0.16 22.67, 0.04 17.19, 0 8.75 M0 8.75 C0 2.44, 2.38 -0.58, 8.75 0 M0 8.75 C1.99 2.02, 2.9 -1.88, 8.75 0" stroke="#f08c00" stroke-width="2" fill="none"></path></g><g transform="translate(895.7901077270508 221.06669425964355) rotate(0 43.2099609375 12.5)"><text x="43.2099609375" y="0" font-family="Virgil, Segoe UI Emoji" font-size="20px" fill="#f08c00" text-anchor="middle" style="white-space: pre;" direction="ltr" dominant-baseline="text-before-edge">LibreNMS</text></g><g stroke-linecap="round" transform="translate(862.200080871582 147.36665916442826) rotate(0 49.2000732421875 17.5)"><path d="M8.75 0 C40.44 -0.21, 72.49 1.8, 89.65 0 M8.75 0 C36.99 0.06, 66.94 -0.35, 89.65 0 M89.65 0 C94.6 -0.61, 96.63 3.57, 98.4 8.75 M89.65 0 C93.91 0.47, 98.38 1.33, 98.4 8.75 M98.4 8.75 C99.49 12.99, 99.11 19.6, 98.4 26.25 M98.4 8.75 C98.42 12.43, 98.9 15.22, 98.4 26.25 M98.4 26.25 C98.71 30.31, 97.21 35.57, 89.65 35 M98.4 26.25 C96.39 31.43, 97.15 33.27, 89.65 35 M89.65 35 C67.46 34.91, 45.5 34.55, 8.75 35 M89.65 35 C59.93 35.43, 29.62 35.86, 8.75 35 M8.75 35 C1.28 36.09, -1.45 30.29, 0 26.25 M8.75 35 C2.8 33.66, -1.25 30.21, 0 26.25 M0 26.25 C-0.94 20.98, -1.63 13.01, 0 8.75 M0 26.25 C-0.04 19.45, -0.27 12.8, 0 8.75 M0 8.75 C1.73 2.14, 2.91 -1.64, 8.75 0 M0 8.75 C-0.75 1, 3.31 0.19, 8.75 0" stroke="#f08c00" stroke-width="2" fill="none"></path></g><g transform="translate(877.8601837158203 152.36665916442826) rotate(0 33.53997039794922 12.5)"><text x="33.53997039794922" y="0" font-family="Virgil, Segoe UI Emoji" font-size="20px" fill="#f08c00" text-anchor="middle" style="white-space: pre;" direction="ltr" dominant-baseline="text-before-edge">Apstra</text></g><g stroke-linecap="round"><g transform="translate(403.40003204345703 376.066686630249) rotate(0 -28.000030517578125 -10.400009155273438)"><path d="M1.13 0.73 C-7.99 -2.74, -45.09 -16.28, -54.8 -19.71 M0.26 0.07 C-8.91 -3.2, -45.93 -17.63, -55.12 -21.25" stroke="#f08c00" stroke-width="2" fill="none"></path></g></g><mask></mask><g stroke-linecap="round"><g transform="translate(333.7999954223633 460.8666744232178) rotate(0 33.20001220703125 -41.19999694824219)"><path d="M1.2 1.09 C11.88 -12.6, 54.42 -67.61, 65.24 -81.44 M0.37 0.62 C11.31 -13.46, 56.53 -68.95, 67.34 -83.06" stroke="#f08c00" stroke-width="2" fill="none"></path></g></g><mask></mask><g stroke-linecap="round"><g transform="translate(617.6281677168515 406.9192476336748) rotate(0 -22.799957275390625 -14)"><path d="M-1.16 0.96 C-9.01 -3.81, -38.38 -22.65, -45.87 -27.53 M0.43 0.41 C-7.7 -4.21, -39.03 -24.8, -46.97 -29.41" stroke="#f08c00" stroke-width="2" fill="none"></path></g></g><mask></mask><g stroke-linecap="round"><g transform="translate(574.8877599804009 377.8086176354436) rotate(0 15.60003662109375 -42.79998779296875)"><path d="M-0.27 0.47 C5.03 -14.02, 25.6 -71.69, 30.67 -85.97 M1.78 -0.33 C6.99 -14.73, 24.33 -70.12, 29.45 -84.62" stroke="#f08c00" stroke-width="2" fill="none"></path></g></g><mask></mask><g stroke-linecap="round"><g transform="translate(862.599983215332 180.06668663024902) rotate(0 -17.5999755859375 4.400001525878906)"><path d="M-0.24 -0.17 C-6.17 1.29, -29.8 7.46, -35.69 8.98 M0.63 -0.73 C-5.12 0.54, -28.86 6.39, -34.7 8.1" stroke="#f08c00" stroke-width="2" fill="none"></path></g></g><mask></mask><g stroke-linecap="round"><g transform="translate(888.200080871582 234.4666805267334) rotate(0 -11.60003662109375 0.8000030517578125)"><path d="M-0.49 0.18 C-4.38 0.49, -19.79 1.54, -23.58 1.71 M0.26 -0.21 C-3.43 -0.05, -18.57 0.5, -22.54 0.81" stroke="#f08c00" stroke-width="2" fill="none"></path></g></g><mask></mask><g stroke-linecap="round" transform="translate(913.3999099731445 396.9666805267334) rotate(0 49.2000732421875 17.5)"><path d="M8.75 0 C26.25 0.54, 41.56 -0.05, 89.65 0 M8.75 0 C35.73 -0.11, 64.06 -1.45, 89.65 0 M89.65 0 C93.49 -0.96, 98.84 3.22, 98.4 8.75 M89.65 0 C97.25 -1.63, 98.76 0.88, 98.4 8.75 M98.4 8.75 C97.95 16.78, 97.13 21.84, 98.4 26.25 M98.4 8.75 C98.29 13.14, 98.13 17.78, 98.4 26.25 M98.4 26.25 C96.53 31.98, 96.62 35.94, 89.65 35 M98.4 26.25 C99.64 34.17, 93.6 36.26, 89.65 35 M89.65 35 C70.06 33.87, 51.17 36.9, 8.75 35 M89.65 35 C69.01 33.57, 46.82 35.31, 8.75 35 M8.75 35 C3.38 33.75, 0 31.61, 0 26.25 M8.75 35 C2.3 34.33, 1.99 31.19, 0 26.25 M0 26.25 C-1.31 21.31, 0.29 16.23, 0 8.75 M0 26.25 C0.67 22.01, 0.09 15.21, 0 8.75 M0 8.75 C-0.7 3.17, 2.57 0.77, 8.75 0 M0 8.75 C1.51 4.68, 3.72 -0.62, 8.75 0" stroke="#f08c00" stroke-width="2" fill="none"></path></g><g transform="translate(921.8200225830078 401.9666805267334) rotate(0 40.77996063232422 12.5)"><text x="40.77996063232422" y="0" font-family="Virgil, Segoe UI Emoji" font-size="20px" fill="#f08c00" text-anchor="middle" style="white-space: pre;" direction="ltr" dominant-baseline="text-before-edge">jhost##</text></g><g stroke-linecap="round"><g transform="translate(868.200080871582 422.4666805267334) rotate(0 21.5999755859375 -3.5999908447265625)"><path d="M-0.17 0.2 C7.08 -0.88, 36.27 -5.68, 43.47 -6.88 M0.75 -0.17 C7.95 -1.38, 36.2 -6.38, 43.18 -7.68" stroke="#f08c00" stroke-width="2" fill="none"></path></g></g><mask></mask><g stroke-linecap="round" transform="translate(256.6000289916992 98.86665153503418) rotate(0 136.00001525878906 89.60003662109375)"><path d="M116.17 -0.13 C130.32 -2.96, 148.52 -0.24, 163.87 2.19 C179.22 4.61, 195.17 9, 208.28 14.41 C221.39 19.82, 233.14 26.56, 242.51 34.63 C251.87 42.7, 259.53 53.27, 264.48 62.82 C269.43 72.36, 272.65 81.71, 272.2 91.9 C271.75 102.09, 267.77 114.36, 261.78 123.94 C255.79 133.51, 246.7 141.81, 236.26 149.35 C225.83 156.88, 212.74 164.36, 199.18 169.15 C185.62 173.95, 170.13 176.84, 154.91 178.12 C139.7 179.4, 122.93 179.09, 107.88 176.84 C92.83 174.59, 77.8 169.88, 64.61 164.62 C51.42 159.36, 38.32 153.1, 28.73 145.29 C19.15 137.48, 11.73 127.73, 7.1 117.78 C2.48 107.83, 0.43 96.03, 0.99 85.61 C1.55 75.19, 4.96 64.61, 10.48 55.27 C15.99 45.93, 23.89 37.12, 34.08 29.56 C44.28 22, 55.19 14.68, 71.63 9.92 C88.07 5.16, 119.77 2.37, 132.72 0.98 C145.68 -0.4, 149.28 0.12, 149.36 1.61" stroke="#1e1e1e" stroke-width="2.5" fill="none" stroke-dasharray="8 10"></path></g><g transform="translate(351.10354753544254 176.1098946667894) rotate(0 41.32996368408203 12.5)"><text x="41.32996368408203" y="0" font-family="Virgil, Segoe UI Emoji" font-size="20px" fill="#1e1e1e" text-anchor="middle" style="white-space: pre;" direction="ltr" dominant-baseline="text-before-edge">Internet</text></g><g stroke-linecap="round"><g transform="translate(487.10559505358333 314.37347593411823) rotate(0 -34 -19.20001983642578)"><path d="M0.96 -1.17 C-10.51 -7.74, -57.75 -32.8, -69.2 -38.98 M0.01 0.83 C-11.09 -5.62, -55.72 -31.47, -67.11 -37.74" stroke="#f08c00" stroke-width="2" fill="none"></path></g></g><mask></mask><g stroke-linecap="round" transform="translate(506.4999465942383 558.3166332244873) rotate(0 136.00001525878906 89.60003662109375)"><path d="M150.26 0.7 C164.96 0.39, 181.35 5.79, 195.41 10.15 C209.47 14.51, 223.83 19.48, 234.64 26.84 C245.45 34.21, 254.21 44.88, 260.26 54.34 C266.32 63.8, 270.02 73.46, 270.97 83.6 C271.91 93.75, 270.14 105.39, 265.92 115.19 C261.69 125, 254.68 134.36, 245.64 142.46 C236.59 150.55, 224.44 158.22, 211.66 163.77 C198.87 169.31, 184.02 173.14, 168.91 175.72 C153.8 178.3, 136.44 180.1, 120.98 179.22 C105.53 178.34, 89.91 175.21, 76.17 170.45 C62.44 165.69, 49.25 158.26, 38.55 150.66 C27.86 143.07, 18.53 134.09, 12 124.87 C5.47 115.64, 0.57 105.47, -0.62 95.3 C-1.8 85.14, 0.53 73.51, 4.9 63.88 C9.27 54.25, 16.38 45.75, 25.6 37.5 C34.83 29.25, 47.3 20.06, 60.25 14.4 C73.19 8.73, 87.61 5.69, 103.26 3.5 C118.92 1.31, 144.8 1.29, 154.19 1.26 C163.59 1.24, 159.9 1.91, 159.64 3.33" stroke="#f08c00" stroke-width="2.5" fill="none" stroke-dasharray="8 10"></path></g><g transform="translate(618.9034437756769 635.5598763562425) rotate(0 23.42998504638672 12.5)"><text x="23.42998504638672" y="0" font-family="Virgil, Segoe UI Emoji" font-size="20px" fill="#f08c00" text-anchor="middle" style="white-space: pre;" direction="ltr" dominant-baseline="text-before-edge">DMZ</text></g><g stroke-linecap="round" transform="translate(832.2999038696289 634.4167232513428) rotate(0 57.200103759765625 30)"><path d="M15 0 C40.76 -0.34, 67.59 1.07, 99.4 0 M15 0 C43.46 -0.51, 70.22 -0.36, 99.4 0 M99.4 0 C110.24 0.11, 113.98 5.47, 114.4 15 M99.4 0 C108.5 1.71, 112.24 4.88, 114.4 15 M114.4 15 C116.35 24.07, 115.63 34.95, 114.4 45 M114.4 15 C113.84 20.49, 115.35 27.29, 114.4 45 M114.4 45 C113.11 53.86, 111.31 58.07, 99.4 60 M114.4 45 C115.25 56.77, 109.94 58.57, 99.4 60 M99.4 60 C73.48 61.5, 47.94 59.76, 15 60 M99.4 60 C81.16 59.38, 62.85 59.21, 15 60 M15 60 C3.04 61.69, 1.15 56.96, 0 45 M15 60 C4.8 57.8, -0.8 55.29, 0 45 M0 45 C1.42 37.22, -0.66 27.76, 0 15 M0 45 C-0.57 33.51, 0.42 20.82, 0 15 M0 15 C-1.07 3.67, 4.21 0.79, 15 0 M0 15 C2.18 4.64, 4.16 0.18, 15 0" stroke="#f08c00" stroke-width="2" fill="none"></path></g><g transform="translate(837.6000442504883 651.9167232513428) rotate(0 51.89996337890625 12.5)"><text x="51.89996337890625" y="0" font-family="Virgil, Segoe UI Emoji" font-size="20px" fill="#f08c00" text-anchor="middle" style="white-space: pre;" direction="ltr" dominant-baseline="text-before-edge">Guacamole</text></g><g stroke-linecap="round"><g transform="translate(562.6877019970025 577.6587305504827) rotate(0 -36.29994201660156 -67.50004196166992)"><path d="M1.03 0.34 C-11.27 -22.04, -61.52 -112.63, -73.65 -135.34 M0.12 -0.52 C-11.85 -22.63, -59.46 -111.56, -71.49 -133.99" stroke="#f08c00" stroke-width="2" fill="none"></path></g></g><mask></mask><g stroke-linecap="round"><g transform="translate(776.6071225768419 663.8703547270507) rotate(0 26.600013732910156 1.4000282287597656)"><path d="M-1.05 -0.34 C7.79 -0.08, 45.08 1.49, 54.07 1.9 M0.6 -1.57 C9.27 -1.21, 45.01 2.19, 53.58 2.96" stroke="#f08c00" stroke-width="2" fill="none"></path></g></g><mask></mask><g stroke-linecap="round" transform="translate(1074.9999618530273 104.66667175292969) rotate(0 21.500015258789062 15.500020980834961)"><path d="M7.75 0 C16.96 -3.15, 23.9 0.37, 35.25 0 C37.7 2.58, 39.89 -0.32, 43 7.75 C43.57 13.77, 44.93 18.41, 43 23.25 C41.4 25.75, 40.48 34.05, 35.25 31 C24.97 31.8, 15.77 31.11, 7.75 31 C1.24 28.81, 3.53 26.38, 0 23.25 C0.2 19.77, -1.31 17.6, 0 7.75 C0.24 3.29, 5.8 2.2, 7.75 0" stroke="none" stroke-width="0" fill="#1e1e1e"></path><path d="M7.75 0 C12.09 -0.68, 18.23 0.64, 35.25 0 M7.75 0 C15.76 0.68, 23.63 -0.11, 35.25 0 M35.25 0 C41.55 0.94, 44.08 4.39, 43 7.75 M35.25 0 C38.54 1.26, 41.34 0.52, 43 7.75 M43 7.75 C41.64 13.82, 42.4 15.89, 43 23.25 M43 7.75 C43.44 12.11, 43.33 14.8, 43 23.25 M43 23.25 C43 27.94, 39.88 30.42, 35.25 31 M43 23.25 C44.99 27.52, 40.4 29.12, 35.25 31 M35.25 31 C28.06 31.57, 20.37 29.09, 7.75 31 M35.25 31 C24.58 30.31, 13.75 31.4, 7.75 31 M7.75 31 C2.24 31.77, 1.32 29.95, 0 23.25 M7.75 31 C3.39 30.38, -0.32 30.6, 0 23.25 M0 23.25 C0.55 18.52, -0.74 11.01, 0 7.75 M0 23.25 C0.8 19.5, -0.22 16.07, 0 7.75 M0 7.75 C1.59 3.56, 3.3 0.28, 7.75 0 M0 7.75 C-0.42 1.5, 2.62 -1.67, 7.75 0" stroke="#1e1e1e" stroke-width="2" fill="none"></path></g><g transform="translate(1147.0000839233398 107.66669273376465) rotate(0 18.139984130859375 12.5)"><text x="0" y="0" font-family="Virgil, Segoe UI Emoji" font-size="20px" fill="#1e1e1e" text-anchor="start" style="white-space: pre;" direction="ltr" dominant-baseline="text-before-edge">ISP</text></g><g stroke-linecap="round" transform="translate(1074.9999618530273 147.7916669845581) rotate(0 21.500015258789062 15.500020980834961)"><path d="M7.75 0 C11.06 2.5, 16.68 -2.99, 35.25 0 C41.08 -0.82, 43.28 3.4, 43 7.75 C41.96 10.93, 43.25 20.61, 43 23.25 C43.31 26.03, 37.75 29.2, 35.25 31 C24.76 28.87, 20.5 29.03, 7.75 31 C-0.16 31.05, 1.2 28.68, 0 23.25 C0.32 19.15, 2.62 15.67, 0 7.75 C-1.64 1.79, 1.34 -3.01, 7.75 0" stroke="none" stroke-width="0" fill="#fd7e14"></path><path d="M7.75 0 C15.45 -0.54, 23.38 -0.9, 35.25 0 M7.75 0 C18.61 0.48, 28.88 0.92, 35.25 0 M35.25 0 C38.78 1.09, 41.55 0.79, 43 7.75 M35.25 0 C40.3 -1.34, 41.75 0.71, 43 7.75 M43 7.75 C42.07 15.38, 41.45 20.63, 43 23.25 M43 7.75 C43.04 13.41, 42.83 19.21, 43 23.25 M43 23.25 C44.73 27.64, 40.41 29.36, 35.25 31 M43 23.25 C42.25 26.5, 40.81 31.19, 35.25 31 M35.25 31 C27.97 31.88, 19.26 30.55, 7.75 31 M35.25 31 C29.46 31.42, 24.67 31.8, 7.75 31 M7.75 31 C3.28 30.46, -0.28 30.32, 0 23.25 M7.75 31 C4.15 31.15, -0.85 29.25, 0 23.25 M0 23.25 C-0.95 17.01, 0.68 13.48, 0 7.75 M0 23.25 C0.67 19.22, 0.33 14.55, 0 7.75 M0 7.75 C-0.37 1.64, 2.62 -1.45, 7.75 0 M0 7.75 C-0.14 2.25, 3.66 0.73, 7.75 0" stroke="#f08c00" stroke-width="2" fill="none"></path></g><g transform="translate(1145.859992980957 150.79168796539307) rotate(0 41.06996154785156 12.5)"><text x="0" y="0" font-family="Virgil, Segoe UI Emoji" font-size="20px" fill="#1e1e1e" text-anchor="start" style="white-space: pre;" direction="ltr" dominant-baseline="text-before-edge">Sidecart</text></g><g stroke-linecap="round" transform="translate(1074.9999618530273 197.04163074493408) rotate(0 21.500015258789062 15.500020980834961)"><path d="M7.75 0 C18.63 -0.43, 28.47 1.21, 35.25 0 C41.81 2.57, 44.02 0.99, 43 7.75 C43.24 9.4, 40.94 13.36, 43 23.25 C44.17 25.91, 40.9 29.65, 35.25 31 C25.93 30.77, 23.3 30.99, 7.75 31 C2.57 29.32, 1.66 28.66, 0 23.25 C-1.52 17.68, -1.21 11.01, 0 7.75 C-0.94 0.16, 6.11 2.34, 7.75 0" stroke="none" stroke-width="0" fill="#6741d9"></path><path d="M7.75 0 C16.9 -1.77, 22.98 1.24, 35.25 0 M7.75 0 C16.48 0.3, 26.12 -1.15, 35.25 0 M35.25 0 C40.31 -1.17, 41.91 0.95, 43 7.75 M35.25 0 C42.64 -0.76, 41.52 1.28, 43 7.75 M43 7.75 C44.04 14.24, 41.88 20.02, 43 23.25 M43 7.75 C43.63 11.73, 42.95 15.67, 43 23.25 M43 23.25 C42.35 26.75, 40.76 31.17, 35.25 31 M43 23.25 C43.61 28.22, 38.16 32.95, 35.25 31 M35.25 31 C23.51 30.28, 15.85 30.63, 7.75 31 M35.25 31 C26.29 30.94, 16.48 32.16, 7.75 31 M7.75 31 C3.95 31.13, -0.74 29.14, 0 23.25 M7.75 31 C4.02 29.91, -1.23 26.89, 0 23.25 M0 23.25 C-0.31 18.65, 0.06 16.42, 0 7.75 M0 23.25 C-0.2 17.48, -0.04 11.87, 0 7.75 M0 7.75 C-0.13 2.29, 3.52 0.63, 7.75 0 M0 7.75 C-1.86 2.58, 2.97 -1.73, 7.75 0" stroke="#1971c2" stroke-width="2" fill="none"></path></g><g transform="translate(1145.4300155639648 200.04165172576904) rotate(0 75.64994049072266 12.5)"><text x="0" y="0" font-family="Virgil, Segoe UI Emoji" font-size="20px" fill="#1e1e1e" text-anchor="start" style="white-space: pre;" direction="ltr" dominant-baseline="text-before-edge">Test IP Fabric</text></g><g stroke-linecap="round" transform="translate(1074.9999618530273 244.16663646697998) rotate(0 21.500015258789062 15.500020980834961)"><path d="M7.75 0 C16.77 2.46, 24.01 -1.71, 35.25 0 C37.75 0.06, 46.05 2.89, 43 7.75 C43.7 9.43, 43.16 13.95, 43 23.25 C40.81 31.95, 38.38 28.26, 35.25 31 C26.94 29.35, 20.33 31.28, 7.75 31 C3.29 34.22, 2.2 26.78, 0 23.25 C-0.63 17.06, 2.83 16.44, 0 7.75 C0 -0.82, 4.92 2.62, 7.75 0" stroke="none" stroke-width="0" fill="#2f9e44"></path><path d="M7.75 0 C14.36 0.92, 20.91 -1.79, 35.25 0 M7.75 0 C17.45 -0.34, 26.71 -0.57, 35.25 0 M35.25 0 C42.35 -0.66, 41.71 1.45, 43 7.75 M35.25 0 C42.62 -2.22, 43.85 4.35, 43 7.75 M43 7.75 C42.53 12.35, 42.45 19.11, 43 23.25 M43 7.75 C42.75 11.15, 43.13 15.91, 43 23.25 M43 23.25 C43.53 28.25, 38.46 32.69, 35.25 31 M43 23.25 C44.32 30.67, 40.21 28.8, 35.25 31 M35.25 31 C28.73 32.27, 22.2 31.65, 7.75 31 M35.25 31 C28.43 31.33, 19.87 31.63, 7.75 31 M7.75 31 C3.84 30.06, -1.07 27.09, 0 23.25 M7.75 31 C1.67 31.91, 2.18 28.05, 0 23.25 M0 23.25 C0.74 19.72, 0.21 14.8, 0 7.75 M0 23.25 C-0.05 19.22, 0.36 15.66, 0 7.75 M0 7.75 C-1.62 2.58, 2.92 -1.51, 7.75 0 M0 7.75 C1.65 0.59, 0.73 0.42, 7.75 0" stroke="#2f9e44" stroke-width="2" fill="none"></path></g><g transform="translate(1136.3500671386719 247.16665744781494) rotate(0 63.289955139160156 12.5)"><text x="0" y="0" font-family="Virgil, Segoe UI Emoji" font-size="20px" fill="#1e1e1e" text-anchor="start" style="white-space: pre;" direction="ltr" dominant-baseline="text-before-edge">Out of Band</text></g><g stroke-linecap="round"><g transform="translate(371.0000228881836 73.16667556762695) rotate(0 241.0000228881836 296.9999933242798)"><path d="M-0.98 0.66 C21.43 72.3, 54.65 332.15, 135.13 430.92 C215.62 529.7, 424.24 566.28, 481.94 593.3 M0.7 -0.05 C23.44 72.22, 57.32 332.85, 137.39 431.9 C217.46 530.94, 423.83 567.3, 481.14 594.25" stroke="#1e1e1e" stroke-width="2" fill="none"></path></g><g transform="translate(371.0000228881836 73.16667556762695) rotate(0 241.0000228881836 296.9999933242798)"><path d="M456.15 594.91 C466.08 593.43, 472.03 594.54, 481.14 594.25 M456.15 594.91 C463.16 594.62, 467.59 594.22, 481.14 594.25" stroke="#1e1e1e" stroke-width="2" fill="none"></path></g><g transform="translate(371.0000228881836 73.16667556762695) rotate(0 241.0000228881836 296.9999933242798)"><path d="M461.57 578.69 C469.73 582.91, 473.76 589.76, 481.14 594.25 M461.57 578.69 C467.19 582.28, 470.3 585.8, 481.14 594.25" stroke="#1e1e1e" stroke-width="2" fill="none"></path></g></g><mask></mask><g stroke-linecap="round"><g transform="translate(855.0000381469727 655.1666927337646) rotate(0 -157.5 -121.00000381469727)"><path d="M-0.87 -1.08 C-62.38 -41.64, -379.26 -203.55, -370.06 -242.7 C-360.86 -281.85, -16.69 -237.2, 54.35 -235.98 M0.88 0.97 C-60.71 -39.5, -379.77 -202.17, -371.04 -241.53 C-362.32 -280.89, -17.5 -236.35, 53.24 -235.18" stroke="#1e1e1e" stroke-width="2" fill="none"></path></g><g transform="translate(855.0000381469727 655.1666927337646) rotate(0 -157.5 -121.00000381469727)"><path d="M29.16 -228.45 C32.58 -229.85, 38.47 -232.3, 53.24 -235.18 M29.16 -228.45 C33.71 -230.41, 40.57 -232.28, 53.24 -235.18" stroke="#1e1e1e" stroke-width="2" fill="none"></path></g><g transform="translate(855.0000381469727 655.1666927337646) rotate(0 -157.5 -121.00000381469727)"><path d="M30.47 -245.5 C33.7 -243.19, 39.3 -241.92, 53.24 -235.18 M30.47 -245.5 C34.9 -243.74, 41.47 -241.88, 53.24 -235.18" stroke="#1e1e1e" stroke-width="2" fill="none"></path></g></g><mask></mask><g stroke-linecap="round"><g transform="translate(918.9999771118164 404.1667079925537) rotate(0 -205.49999237060547 -117.00000762939453)"><path d="M-0.06 -0.7 C-68.53 -8.18, -405.19 -7.03, -411.65 -45.98 C-418.12 -84.93, -100.65 -202.95, -38.84 -234.4 M-1.55 1.55 C-69.55 -5.72, -403.05 -5.82, -409.29 -44.96 C-415.53 -84.1, -100.38 -201.79, -38.99 -233.29" stroke="#1e1e1e" stroke-width="2" fill="none"></path></g><g transform="translate(918.9999771118164 404.1667079925537) rotate(0 -205.49999237060547 -117.00000762939453)"><path d="M-57.11 -216.06 C-54 -221.06, -50.34 -221.96, -38.99 -233.29 M-57.11 -216.06 C-51.21 -221.52, -46.96 -224.39, -38.99 -233.29" stroke="#1e1e1e" stroke-width="2" fill="none"></path></g><g transform="translate(918.9999771118164 404.1667079925537) rotate(0 -205.49999237060547 -117.00000762939453)"><path d="M-63.94 -231.74 C-59.42 -233.17, -54.2 -230.49, -38.99 -233.29 M-63.94 -231.74 C-56.32 -232.98, -50.24 -231.65, -38.99 -233.29" stroke="#1e1e1e" stroke-width="2" fill="none"></path></g></g><mask></mask><g stroke-linecap="round"><g transform="translate(858.9999771118164 164.16668891906738) rotate(0 -385.89994049072254 196.3000431060791)"><path d="M-0.65 -0.98 C-55.62 20.9, -201.18 65.12, -329.84 130.6 C-458.49 196.09, -699.1 348.44, -772.57 391.92 M1.2 1.12 C-53.81 23.24, -201.63 66.64, -330.18 131.93 C-458.72 197.23, -696.2 349.54, -770.09 392.88" stroke="#1e1e1e" stroke-width="2" fill="none"></path></g><g transform="translate(858.9999771118164 164.16668891906738) rotate(0 -385.89994049072254 196.3000431060791)"><path d="M-754.5 373.33 C-760.84 380.95, -764.46 383.48, -770.09 392.88 M-754.5 373.33 C-757.73 378.7, -761.66 382.06, -770.09 392.88" stroke="#1e1e1e" stroke-width="2" fill="none"></path></g><g transform="translate(858.9999771118164 164.16668891906738) rotate(0 -385.89994049072254 196.3000431060791)"><path d="M-745.58 387.92 C-754.47 391.19, -760.72 389.42, -770.09 392.88 M-745.58 387.92 C-751.12 389.66, -757.22 389.47, -770.09 392.88" stroke="#1e1e1e" stroke-width="2" fill="none"></path></g></g><mask></mask><g stroke-linecap="round" transform="translate(10 554.166669845581) rotate(0 35.5000114440918 18.500003814697266)"><path d="M9.25 0 C21.48 -1.8, 33.89 1.4, 61.75 0 M9.25 0 C20.16 -1.03, 30.6 -0.64, 61.75 0 M61.75 0 C67.38 -0.58, 72.73 2.31, 71 9.25 M61.75 0 C67.9 -1.88, 70.25 1.17, 71 9.25 M71 9.25 C70.86 13.3, 72.58 22.04, 71 27.75 M71 9.25 C70.66 16.73, 70.82 24.33, 71 27.75 M71 27.75 C72.32 35.45, 68.62 36.46, 61.75 37 M71 27.75 C70.68 36.1, 69.48 37.15, 61.75 37 M61.75 37 C46.99 36.26, 32.79 36.53, 9.25 37 M61.75 37 C43.56 37, 26.9 37.4, 9.25 37 M9.25 37 C3.8 37.28, -0.37 32.97, 0 27.75 M9.25 37 C3.12 35.33, -0.14 33.58, 0 27.75 M0 27.75 C-0.06 21.65, -1.45 16.25, 0 9.25 M0 27.75 C-0.06 23.87, 0.36 20.21, 0 9.25 M0 9.25 C1.43 3.65, 2.2 -1.48, 9.25 0 M0 9.25 C0.04 5.03, 3.28 -1.52, 9.25 0" stroke="#1971c2" stroke-width="2" fill="none"></path></g><g transform="translate(19.970027923583984 560.1666736602783) rotate(0 25.529983520507812 12.5)"><text x="25.529983520507812" y="0" font-family="Virgil, Segoe UI Emoji" font-size="20px" fill="#1971c2" text-anchor="middle" style="white-space: pre;" direction="ltr" dominant-baseline="text-before-edge">qfx01</text></g><g stroke-linecap="round"><g transform="translate(133.00003051757812 561.1666774749756) rotate(0 -25.500011444091797 7.000007629394531)"><path d="M1.15 -1.16 C-7.15 1.44, -41.91 12.52, -50.56 14.92 M0.29 0.85 C-8.06 3.18, -42.67 11.06, -51.27 13.28" stroke="#2f9e44" stroke-width="2" fill="none"></path></g></g><mask></mask><g stroke-linecap="round" transform="translate(304.19995880126953 10) rotate(0 50.80000305175781 28)"><path d="M14 0 C44.66 0.19, 70.99 -0.27, 87.6 0 M14 0 C35.18 -0.17, 54.64 -0.6, 87.6 0 M87.6 0 C96.28 -1.66, 101.94 4.83, 101.6 14 M87.6 0 C97.54 -0.2, 99.35 6.61, 101.6 14 M101.6 14 C99.96 23.31, 102.13 33.66, 101.6 42 M101.6 14 C102.13 23.21, 101.64 33.91, 101.6 42 M101.6 42 C102.96 51.46, 96.2 56.73, 87.6 56 M101.6 42 C103.04 50.25, 95.7 54.48, 87.6 56 M87.6 56 C68.13 55.97, 49.45 58.29, 14 56 M87.6 56 C61.75 55.63, 36.28 55.38, 14 56 M14 56 C4.54 55.71, 0.93 51.96, 0 42 M14 56 C2.8 56, 0.38 49.6, 0 42 M0 42 C0.61 31.14, 0.4 21.64, 0 14 M0 42 C-0.64 31.77, -0.18 23.87, 0 14 M0 14 C0.17 3.34, 3.19 -1, 14 0 M0 14 C0.75 3.07, 4.97 -0.86, 14 0" stroke="#1e1e1e" stroke-width="2" fill="none"></path></g><g transform="translate(333.35997772216797 28) rotate(0 21.639984130859375 10)"><text x="21.639984130859375" y="0" font-family="Virgil, Segoe UI Emoji" font-size="16px" fill="#1e1e1e" text-anchor="middle" style="white-space: pre;" direction="ltr" dominant-baseline="text-before-edge">Client</text></g><g stroke-linecap="round"><g transform="translate(354.0000534057617 66.00003051757812) rotate(0 0.49999237060546875 18.999996185302734)"><path d="M0 -0.13 C0.12 6.23, 0.61 31.52, 0.85 37.84 M-0.66 -0.67 C-0.64 5.8, 0.01 31.97, 0.35 38.46" stroke="#1e1e1e" stroke-width="2" fill="none"></path></g></g><mask></mask><g stroke-linecap="round" transform="translate(391.01501846313477 117.21668481826737) rotate(0 20.79998779296875 24.5)"><path d="M16.38 0.38 C20.45 -1.03, 26.43 0.19, 30.36 2.64 C34.3 5.09, 38.28 10.09, 39.98 15.09 C41.68 20.09, 41.98 27.67, 40.56 32.64 C39.13 37.62, 35.2 42.31, 31.43 44.94 C27.66 47.57, 22.37 49.08, 17.94 48.43 C13.51 47.78, 7.8 44.9, 4.84 41.06 C1.88 37.21, 0.17 30.61, 0.18 25.36 C0.2 20.11, 2.06 13.73, 4.92 9.57 C7.78 5.4, 15.09 1.84, 17.36 0.38 C19.63 -1.08, 18.55 0.4, 18.56 0.8 M16.68 0.44 C20.71 -0.68, 26.39 0.95, 30.37 3.47 C34.36 6, 38.98 10.84, 40.58 15.58 C42.18 20.32, 41.4 26.96, 39.98 31.94 C38.57 36.92, 35.82 42.65, 32.08 45.46 C28.34 48.27, 22.09 49.57, 17.53 48.78 C12.97 47.99, 7.56 44.63, 4.73 40.7 C1.89 36.77, 0.47 30.52, 0.52 25.2 C0.57 19.87, 2.39 12.74, 5.02 8.73 C7.66 4.73, 14.4 2.34, 16.32 1.15 C18.25 -0.04, 16.48 1.2, 16.56 1.59" stroke="#e03131" stroke-width="2" fill="none"></path></g><g transform="translate(408.8971947546253 129.39256867919676) rotate(0 2.7099990844726562 12.5)"><text x="2.7099990844726562" y="0" font-family="Virgil, Segoe UI Emoji" font-size="20px" fill="#e03131" text-anchor="middle" style="white-space: pre;" direction="ltr" dominant-baseline="text-before-edge">1</text></g><g stroke-linecap="round" transform="translate(690.614933013916 628.3166298866267) rotate(0 20.79998779296875 24.5)"><path d="M17.97 0.3 C22.01 -0.67, 27.89 1.2, 31.61 4.06 C35.34 6.93, 38.95 12.49, 40.33 17.47 C41.7 22.45, 41.5 29.17, 39.85 33.96 C38.19 38.75, 34.3 43.84, 30.39 46.21 C26.48 48.59, 20.65 49.28, 16.38 48.2 C12.11 47.11, 7.54 43.87, 4.79 39.71 C2.03 35.54, -0.16 28.54, -0.13 23.22 C-0.1 17.9, 1.74 11.7, 4.98 7.79 C8.22 3.88, 16.79 0.98, 19.33 -0.22 C21.87 -1.42, 20.19 0.18, 20.21 0.58 M22.8 -0.22 C27.2 0.06, 33.22 4.22, 36.36 7.98 C39.51 11.73, 41.48 17.05, 41.65 22.31 C41.82 27.57, 39.96 35.14, 37.36 39.55 C34.76 43.97, 30.35 47.59, 26.04 48.79 C21.73 49.99, 15.64 49.14, 11.51 46.75 C7.38 44.36, 3.15 39.22, 1.28 34.45 C-0.59 29.68, -1.04 23.18, 0.28 18.13 C1.61 13.08, 5.49 7.22, 9.23 4.15 C12.97 1.08, 20.37 0.32, 22.72 -0.28 C25.06 -0.89, 23.15 0.04, 23.3 0.53" stroke="#e03131" stroke-width="2" fill="none"></path></g><g transform="translate(704.0871132726917 640.4925137475561) rotate(0 7.1199951171875 12.5)"><text x="7.1199951171875" y="0" font-family="Virgil, Segoe UI Emoji" font-size="20px" fill="#e03131" text-anchor="middle" style="white-space: pre;" direction="ltr" dominant-baseline="text-before-edge">2</text></g><g stroke-linecap="round" transform="translate(518.614933013916 403.11667871475174) rotate(0 20.79998779296875 24.5)"><path d="M21.5 0.31 C25.7 0.11, 31.02 2.8, 34.38 6.26 C37.74 9.73, 40.95 15.89, 41.67 21.08 C42.38 26.27, 41.08 32.92, 38.66 37.4 C36.25 41.89, 31.41 46.28, 27.17 48 C22.93 49.72, 17.33 49.78, 13.21 47.74 C9.1 45.71, 4.59 40.43, 2.46 35.77 C0.34 31.1, -0.49 24.82, 0.46 19.76 C1.42 14.7, 4.64 8.66, 8.19 5.41 C11.73 2.15, 19.24 1.03, 21.73 0.2 C24.23 -0.63, 23.14 0.09, 23.14 0.43 M24.76 0.73 C29 1.37, 33.14 4.97, 36.03 8.85 C38.93 12.72, 41.93 18.74, 42.11 23.99 C42.28 29.25, 40.09 36.31, 37.08 40.37 C34.07 44.42, 28.4 47.4, 24.05 48.35 C19.69 49.3, 14.8 48.53, 10.96 46.05 C7.11 43.56, 2.59 38.3, 0.98 33.43 C-0.64 28.55, -0.16 21.9, 1.27 16.8 C2.71 11.69, 5.71 5.63, 9.57 2.8 C13.42 -0.03, 21.88 0.09, 24.41 -0.18 C26.94 -0.46, 24.9 0.8, 24.75 1.17" stroke="#e03131" stroke-width="2" fill="none"></path></g><g transform="translate(532.3971108312854 415.29256257568113) rotate(0 6.80999755859375 12.5)"><text x="6.80999755859375" y="0" font-family="Virgil, Segoe UI Emoji" font-size="20px" fill="#e03131" text-anchor="middle" style="white-space: pre;" direction="ltr" dominant-baseline="text-before-edge">3</text></g><g stroke-linecap="round" transform="translate(803.815128326416 192.71665430068924) rotate(0 20.79998779296875 24.5)"><path d="M20.27 0.4 C24.53 -0.2, 30.17 1.66, 33.7 4.83 C37.24 8, 40.63 14.26, 41.5 19.42 C42.37 24.58, 41.07 31.16, 38.95 35.77 C36.83 40.37, 32.92 45.08, 28.78 47.03 C24.65 48.98, 18.4 48.93, 14.14 47.46 C9.87 45.99, 5.48 42.56, 3.2 38.21 C0.92 33.87, -0.2 26.73, 0.46 21.39 C1.11 16.06, 3.79 9.74, 7.11 6.21 C10.44 2.69, 18.17 1.25, 20.4 0.23 C22.64 -0.8, 20.55 -0.32, 20.51 0.05 M25.56 0.74 C29.64 1.56, 34.36 5.89, 37.1 10 C39.84 14.11, 42.07 20.17, 42 25.41 C41.94 30.65, 39.78 37.65, 36.71 41.44 C33.64 45.22, 27.99 47.43, 23.6 48.13 C19.21 48.82, 14.12 48.27, 10.39 45.61 C6.65 42.94, 2.67 37.08, 1.18 32.15 C-0.31 27.23, -0.25 20.82, 1.45 16.07 C3.16 11.32, 7.47 6.23, 11.41 3.64 C15.35 1.05, 22.91 1.03, 25.11 0.52 C27.31 0.02, 24.7 0.33, 24.6 0.6" stroke="#e03131" stroke-width="2" fill="none"></path></g><g transform="translate(818.0073098058948 204.89253816161863) rotate(0 6.399993896484375 12.5)"><text x="6.399993896484375" y="0" font-family="Virgil, Segoe UI Emoji" font-size="20px" fill="#e03131" text-anchor="middle" style="white-space: pre;" direction="ltr" dominant-baseline="text-before-edge">4</text></g><g stroke-linecap="round" transform="translate(229.41498184204102 471.51670312881424) rotate(0 20.79998779296875 24.5)"><path d="M19.72 0.22 C23.82 -0.18, 29.77 1.99, 33.27 5.22 C36.77 8.46, 39.76 14.44, 40.73 19.64 C41.7 24.84, 41.13 31.75, 39.11 36.43 C37.09 41.11, 32.78 45.83, 28.61 47.73 C24.44 49.62, 18.34 49.53, 14.1 47.8 C9.86 46.08, 5.54 41.83, 3.17 37.36 C0.8 32.9, -0.72 26.27, -0.12 21.03 C0.48 15.79, 3.22 9.36, 6.76 5.92 C10.3 2.48, 18.56 1.22, 21.11 0.4 C23.67 -0.42, 22.07 0.75, 22.09 1.01 M20.27 0.66 C24.5 0.16, 30.61 1.49, 34.18 4.58 C37.74 7.67, 40.87 13.89, 41.65 19.21 C42.43 24.54, 40.92 31.91, 38.85 36.54 C36.78 41.18, 33.39 45.19, 29.25 47.02 C25.1 48.85, 18.26 49.21, 13.99 47.54 C9.72 45.87, 6 41.46, 3.62 36.99 C1.25 32.51, -0.75 25.9, -0.25 20.68 C0.25 15.47, 3.29 9.13, 6.64 5.71 C9.99 2.29, 17.5 1.16, 19.86 0.17 C22.21 -0.82, 20.78 -0.53, 20.77 -0.23" stroke="#e03131" stroke-width="2" fill="none"></path></g><g transform="translate(243.82716454222287 483.69258698974363) rotate(0 6.17999267578125 12.5)"><text x="6.17999267578125" y="0" font-family="Virgil, Segoe UI Emoji" font-size="20px" fill="#e03131" text-anchor="middle" style="white-space: pre;" direction="ltr" dominant-baseline="text-before-edge">5</text></g></svg>