<svg version="1.1" xmlns="http://www.w3.org/2000/svg" viewBox="0 0 1306.7298965454102 747.516706466675" width="1306.7298965454102" height="747.516706466675">
  <!-- svg-source:excalidraw -->
  
  <defs>
    <style class="style-fonts">
      @font-face {
        font-family: "Virgil";
        src: url("https://excalidraw.com/Virgil.woff2");
      }
      @font-face {
        font-family: "Cascadia";
        src: url("https://excalidraw.com/Cascadia.woff2");
      }
      @font-face {
        font-family: "Assistant";
        src: url("https://excalidraw.com/Assistant-Regular.woff2");
      }
    </style>
    
  </defs>
  <rect x="0" y="0" width="1306.7298965454102" height="747.516706466675" fill="#ffffff"></rect><g stroke-linecap="round" transform="translate(72.2000503540039 256.8666744232178) rotate(0 136.00001525878906 89.60003662109375)"><path d="M197.3 8.59 C211.57 11.79, 224.54 20.44, 235.08 28.14 C245.62 35.84, 254.5 45.55, 260.51 54.77 C266.53 63.99, 270.07 73.38, 271.17 83.44 C272.28 93.51, 271.53 105.2, 267.17 115.15 C262.8 125.11, 254.48 134.98, 244.97 143.17 C235.46 151.36, 222.85 158.65, 210.11 164.28 C197.37 169.91, 183.4 174.59, 168.53 176.94 C153.65 179.3, 136.37 179.46, 120.86 178.41 C105.34 177.36, 89.52 175.19, 75.46 170.67 C61.39 166.15, 47.24 158.89, 36.48 151.27 C25.72 143.65, 16.87 134.47, 10.92 124.95 C4.97 115.44, 1.53 104.26, 0.78 94.19 C0.03 84.12, 2.03 74.07, 6.41 64.55 C10.79 55.04, 18.02 45.25, 27.07 37.09 C36.13 28.94, 47.73 21.29, 60.74 15.64 C73.74 9.99, 89.92 5.57, 105.1 3.19 C120.28 0.82, 133.89 -0.54, 151.81 1.39 C169.73 3.32, 200.85 11.09, 212.62 14.78 C224.4 18.48, 223.78 22.17, 222.46 23.56" stroke="#1971c2" stroke-width="2.5" fill="none" stroke-dasharray="8 10"></path></g><g transform="translate(162.14009857177734 334.109917554973) rotate(0 46.059967041015625 12.5)"><text x="46.059967041015625" y="0" font-family="Virgil, Segoe UI Emoji" font-size="20px" fill="#1971c2" text-anchor="middle" style="white-space: pre;" direction="ltr" dominant-baseline="text-before-edge">IP Fabric</text></g><g stroke-linecap="round" transform="translate(128.39995574951172 447.26672935485817) rotate(0 136.00001525878906 89.60003662109375)"><path d="M134.49 -0.06 C149.35 -1.37, 166.16 2.24, 180.59 5.46 C195.01 8.68, 209.06 12.81, 221.02 19.24 C232.99 25.68, 244.21 35.16, 252.37 44.05 C260.54 52.94, 267.18 62.66, 270 72.58 C272.82 82.49, 271.68 93.5, 269.29 103.52 C266.9 113.54, 262.98 123.74, 255.65 132.7 C248.33 141.66, 237.12 150.59, 225.36 157.27 C213.59 163.96, 199.59 169.13, 185.05 172.83 C170.51 176.54, 153.65 179.16, 138.12 179.5 C122.59 179.84, 106.62 178.15, 91.89 174.87 C77.15 171.59, 61.67 166.44, 49.7 159.83 C37.74 153.21, 27.89 143.96, 20.07 135.18 C12.25 126.4, 5.75 117.06, 2.8 107.17 C-0.15 97.27, 0.1 85.97, 2.36 75.82 C4.63 65.67, 8.88 55.41, 16.42 46.27 C23.95 37.14, 35.58 27.87, 47.58 21.03 C59.58 14.2, 71.19 8.81, 88.43 5.25 C105.67 1.69, 137.94 -0.24, 151.01 -0.35 C164.07 -0.45, 167.19 3.07, 166.83 4.62" stroke="#2f9e44" stroke-width="2.5" fill="none" stroke-dasharray="8 10"></path></g><g transform="translate(234.78345628788395 524.5099724866136) rotate(0 29.449981689453125 12.5)"><text x="29.449981689453125" y="0" font-family="Virgil, Segoe UI Emoji" font-size="20px" fill="#2f9e44" text-anchor="middle" style="white-space: pre;" direction="ltr" dominant-baseline="text-before-edge">OOBM</text></g><g stroke-linecap="round" transform="translate(587.7999801635742 153.866636276245) rotate(0 136.00001525878906 89.6000366210938)"><path d="M91.15 5.46 C104.4 1.16, 122.55 0.14, 138.18 0.3 C153.8 0.45, 170.47 2.73, 184.89 6.4 C199.31 10.06, 213.15 15.49, 224.68 22.28 C236.2 29.07, 246.33 38.37, 254.02 47.12 C261.7 55.87, 268.23 64.81, 270.8 74.78 C273.37 84.75, 272.43 96.85, 269.44 106.93 C266.46 117.01, 260.92 126.62, 252.89 135.25 C244.86 143.88, 233.51 152.3, 221.26 158.7 C209 165.1, 194.08 170.26, 179.35 173.67 C164.63 177.08, 148.18 179.32, 132.92 179.16 C117.65 179.01, 101.94 176.36, 87.75 172.73 C73.56 169.1, 59.39 163.97, 47.77 157.39 C36.14 150.81, 25.83 142.14, 18.01 133.27 C10.18 124.4, 3.29 114.22, 0.79 104.18 C-1.71 94.15, 0.04 83.04, 3.01 73.05 C5.98 63.07, 10.72 52.94, 18.59 44.26 C26.47 35.58, 37.12 27.61, 50.27 20.98 C63.42 14.35, 88.9 7.06, 97.48 4.47 C106.06 1.88, 101.09 3.96, 101.74 5.44" stroke="#f08c00" stroke-width="2.5" fill="none" stroke-dasharray="8 10"></path></g><g transform="translate(660.3635038953058 218.60987940800032) rotate(0 63.26995849609369 25)"><text x="63.26995849609375" y="0" font-family="Virgil, Segoe UI Emoji" font-size="20px" fill="#f08c00" text-anchor="middle" style="white-space: pre;" direction="ltr" dominant-baseline="text-before-edge">Management </text><text x="63.26995849609375" y="25" font-family="Virgil, Segoe UI Emoji" font-size="20px" fill="#f08c00" text-anchor="middle" style="white-space: pre;" direction="ltr" dominant-baseline="text-before-edge">Elements</text></g><g stroke-linecap="round" transform="translate(396.19995880126953 308.066686630249) rotate(0 91.60000610351562 68.79998779296875)"><path d="M115 17.25 C131.08 28.42, 143.17 38.42, 160.2 51.75 M115 17.25 C131.61 29.67, 147.79 42, 160.2 51.75 M160.2 51.75 C181.72 68.36, 181.32 69.38, 160.2 86.25 M160.2 51.75 C185.24 67.88, 185.45 69.57, 160.2 86.25 M160.2 86.25 C142.32 99.07, 122.79 112.52, 115 120.35 M160.2 86.25 C143.85 98.97, 129.25 109.58, 115 120.35 M115 120.35 C91.21 137.54, 93.81 135.7, 69 120.35 M115 120.35 C93.89 135.95, 91.46 138.57, 69 120.35 M69 120.35 C54.18 109.68, 42.01 99.85, 23 86.25 M69 120.35 C58.36 112.15, 48.44 104.81, 23 86.25 M23 86.25 C1.48 67.8, -1.41 69.09, 23 51.75 M23 86.25 C1.32 68.47, 1.57 70.07, 23 51.75 M23 51.75 C34.01 44.76, 43.97 34.16, 69 17.25 M23 51.75 C37.78 39.97, 54.34 28.33, 69 17.25 M69 17.25 C91.86 0.86, 90.76 -1.1, 115 17.25 M69 17.25 C89.72 1.69, 90.09 0.61, 115 17.25" stroke="#f08c00" stroke-width="2" fill="none"></path></g><g transform="translate(450.7099914550781 351.9666805267334) rotate(0 37.28997039794922 25)"><text x="37.28997039794922" y="0" font-family="Virgil, Segoe UI Emoji" font-size="20px" fill="#f08c00" text-anchor="middle" style="white-space: pre;" direction="ltr" dominant-baseline="text-before-edge">Virtual </text><text x="37.28997039794922" y="25" font-family="Virgil, Segoe UI Emoji" font-size="20px" fill="#f08c00" text-anchor="middle" style="white-space: pre;" direction="ltr" dominant-baseline="text-before-edge">Firewall</text></g><g stroke-linecap="round" transform="translate(602.3998947143555 360.6666622161863) rotate(0 136.00001525878906 89.60003662109375)"><path d="M85.3 7.59 C98.4 2.57, 115.97 0.55, 131.49 -0.03 C147.02 -0.61, 163.86 1.06, 178.44 4.1 C193.01 7.13, 206.7 11.87, 218.94 18.17 C231.19 24.47, 243.62 33.18, 251.92 41.9 C260.22 50.62, 265.66 60.51, 268.74 70.49 C271.81 80.48, 272.59 91.8, 270.36 101.8 C268.13 111.79, 262.65 121.56, 255.37 130.47 C248.09 139.38, 238.07 148.14, 226.69 155.24 C215.31 162.35, 201.29 169.24, 187.09 173.11 C172.89 176.98, 156.99 178.13, 141.5 178.47 C126 178.81, 108.95 178.02, 94.12 175.17 C79.29 172.31, 64.77 167.68, 52.51 161.35 C40.25 155.02, 28.87 145.84, 20.57 137.19 C12.27 128.54, 5.96 119.5, 2.71 109.47 C-0.54 99.43, -1.14 87.41, 1.08 77 C3.29 66.59, 8.9 56.1, 16 47.02 C23.11 37.93, 31.11 29.51, 43.73 22.48 C56.35 15.45, 82.64 7.8, 91.74 4.84 C100.84 1.89, 97.57 3.35, 98.33 4.77" stroke="#f08c00" stroke-width="2.5" fill="none" stroke-dasharray="8 10"></path></g><g transform="translate(682.3934340100519 437.90990534794173) rotate(0 55.83994293212885 12.5)"><text x="55.839942932128906" y="0" font-family="Virgil, Segoe UI Emoji" font-size="20px" fill="#f08c00" text-anchor="middle" style="white-space: pre;" direction="ltr" dominant-baseline="text-before-edge">Jump Hosts</text></g><g stroke-linecap="round" transform="translate(889.7999954223633 216.06669425964344) rotate(0 49.2000732421875 17.500000000000057)"><path d="M8.75 0 C34.06 1, 57.38 0.71, 89.65 0 M8.75 0 C28.29 -0.2, 47.67 -0.88, 89.65 0 M89.65 0 C95.08 0.64, 97.88 2.38, 98.4 8.75 M89.65 0 C93.48 0.77, 96.16 1.51, 98.4 8.75 M98.4 8.75 C99.84 15.46, 98.75 20.76, 98.4 26.25 M98.4 8.75 C98.61 14.31, 99.1 21.64, 98.4 26.25 M98.4 26.25 C97.9 33.93, 93.65 36.83, 89.65 35 M98.4 26.25 C97.12 31.28, 94.29 34.34, 89.65 35 M89.65 35 C60.24 33.98, 30.32 33.04, 8.75 35 M89.65 35 C57.55 33.72, 25.38 35.25, 8.75 35 M8.75 35 C3.11 34.92, -1.04 31.04, 0 26.25 M8.75 35 C2.62 36.22, 1.11 31.06, 0 26.25 M0 26.25 C-1.29 22.49, 0.27 16.88, 0 8.75 M0 26.25 C-0.54 20.3, -0.48 15.84, 0 8.75 M0 8.75 C0.54 1.7, 1.15 -1.65, 8.75 0 M0 8.75 C-2.27 1.44, 2.25 -0.53, 8.75 0" stroke="#f08c00" stroke-width="2" fill="none"></path></g><g transform="translate(895.7901077270508 221.06669425964344) rotate(0 43.2099609375 12.500000000000057)"><text x="43.2099609375" y="0" font-family="Virgil, Segoe UI Emoji" font-size="20px" fill="#f08c00" text-anchor="middle" style="white-space: pre;" direction="ltr" dominant-baseline="text-before-edge">LibreNMS</text></g><g stroke-linecap="round" transform="translate(862.200080871582 147.36665916442837) rotate(0 49.2000732421875 17.5)"><path d="M8.75 0 C28.51 -0.84, 52.84 -1.35, 89.65 0 M8.75 0 C34.6 0.46, 58.75 -0.18, 89.65 0 M89.65 0 C96.04 -1.06, 98.83 1.04, 98.4 8.75 M89.65 0 C96.39 -0.19, 100.44 2.16, 98.4 8.75 M98.4 8.75 C99.59 10.98, 97.79 14.73, 98.4 26.25 M98.4 8.75 C98.13 13.41, 97.82 18.25, 98.4 26.25 M98.4 26.25 C98.63 32.21, 96.29 36.52, 89.65 35 M98.4 26.25 C97.17 30.02, 95.8 33.61, 89.65 35 M89.65 35 C59.51 37.13, 34.19 37.08, 8.75 35 M89.65 35 C71.03 34.41, 53.02 35.26, 8.75 35 M8.75 35 C4.16 35.75, -1.79 30.46, 0 26.25 M8.75 35 C0.68 32.83, -0.13 33.18, 0 26.25 M0 26.25 C-1.36 22.42, 1.63 18.04, 0 8.75 M0 26.25 C0.42 20.83, 0.7 16.83, 0 8.75 M0 8.75 C-0.19 3.11, 1.12 0.86, 8.75 0 M0 8.75 C-1.87 3.1, 1.54 0.64, 8.75 0" stroke="#f08c00" stroke-width="2" fill="none"></path></g><g transform="translate(877.8601837158203 152.36665916442837) rotate(0 33.53997039794922 12.5)"><text x="33.53997039794922" y="0" font-family="Virgil, Segoe UI Emoji" font-size="20px" fill="#f08c00" text-anchor="middle" style="white-space: pre;" direction="ltr" dominant-baseline="text-before-edge">Apstra</text></g><g stroke-linecap="round"><g transform="translate(403.40003204345703 376.066686630249) rotate(0 -28.000030517578125 -10.400009155273438)"><path d="M1.02 -0.74 C-8.42 -4.18, -46.4 -18.34, -55.92 -21.69 M0.09 1.48 C-9.55 -1.74, -47.32 -17.11, -56.83 -20.62" stroke="#f08c00" stroke-width="2" fill="none"></path></g></g><mask></mask><g stroke-linecap="round"><g transform="translate(333.7999954223633 460.8666744232178) rotate(0 33.20001220703125 -41.19999694824219)"><path d="M0.43 -0.75 C11.37 -14.64, 55.41 -69.53, 66.35 -83.17 M-0.8 1.47 C9.92 -12.3, 54.39 -68.22, 65.37 -82.04" stroke="#f08c00" stroke-width="2" fill="none"></path></g></g><mask></mask><g stroke-linecap="round"><g transform="translate(617.6281677168515 406.919247633675) rotate(0 -22.799957275390625 -14)"><path d="M0.92 0.42 C-6.58 -4.23, -37.58 -23, -45.43 -27.9 M-0.06 -0.41 C-7.66 -4.84, -38.42 -21.68, -46.29 -26.31" stroke="#f08c00" stroke-width="2" fill="none"></path></g></g><mask></mask><g stroke-linecap="round"><g transform="translate(574.8877599804009 377.80861763544385) rotate(0 15.60003662109375 -42.79998779296875)"><path d="M-0.19 -0.87 C5 -15.25, 27.2 -71.88, 32.33 -86.07 M-1.76 1.29 C3.27 -12.95, 26.76 -70.42, 31.97 -84.79" stroke="#f08c00" stroke-width="2" fill="none"></path></g></g><mask></mask><g stroke-linecap="round"><g transform="translate(862.599983215332 180.0666866302489) rotate(0 -17.5999755859375 4.400001525878906)"><path d="M-0.33 -0.34 C-6.25 1.26, -29.67 7.5, -35.43 9.02 M0.5 0.68 C-5.52 2.15, -30.05 6.72, -35.98 8.17" stroke="#f08c00" stroke-width="2" fill="none"></path></g></g><mask></mask><g stroke-linecap="round"><g transform="translate(888.200080871582 234.4666805267334) rotate(0 -11.60003662109375 0.8000030517578125)"><path d="M0.31 0.05 C-3.57 0.4, -18.91 1.3, -22.78 1.6 M-0.19 -0.41 C-4.16 0.08, -19.17 2.08, -23 2.29" stroke="#f08c00" stroke-width="2" fill="none"></path></g></g><mask></mask><g stroke-linecap="round" transform="translate(913.3999099731445 396.96668052673317) rotate(0 49.2000732421875 17.5)"><path d="M8.75 0 C37.67 -1.97, 67.58 0.42, 89.65 0 M8.75 0 C28.24 0.18, 48.95 -0.57, 89.65 0 M89.65 0 C96.19 0.18, 99.89 1.8, 98.4 8.75 M89.65 0 C96.43 0.46, 97.41 0.77, 98.4 8.75 M98.4 8.75 C99.69 17.1, 98.24 21.17, 98.4 26.25 M98.4 8.75 C98.26 14.82, 98.11 19.73, 98.4 26.25 M98.4 26.25 C97.2 33.31, 94.81 35.43, 89.65 35 M98.4 26.25 C99.72 32.4, 94.43 34.35, 89.65 35 M89.65 35 C66 33.79, 42.01 32.6, 8.75 35 M89.65 35 C69.73 35.71, 48.22 33.86, 8.75 35 M8.75 35 C3.71 36.88, 1.18 31.96, 0 26.25 M8.75 35 C4.44 37.12, -0.58 31.68, 0 26.25 M0 26.25 C-0.12 21.9, 0.05 16.47, 0 8.75 M0 26.25 C-0.48 20.7, -0.2 15.16, 0 8.75 M0 8.75 C-0.31 2.5, 4.29 1.73, 8.75 0 M0 8.75 C-1.53 5.21, 3.37 -0.71, 8.75 0" stroke="#f08c00" stroke-width="2" fill="none"></path></g><g transform="translate(921.8200225830078 401.96668052673317) rotate(0 40.77996063232422 12.5)"><text x="40.77996063232422" y="0" font-family="Virgil, Segoe UI Emoji" font-size="20px" fill="#f08c00" text-anchor="middle" style="white-space: pre;" direction="ltr" dominant-baseline="text-before-edge">jhost##</text></g><g stroke-linecap="round"><g transform="translate(868.200080871582 422.4666805267334) rotate(0 21.5999755859375 -3.5999908447265625)"><path d="M-0.25 0.31 C6.86 -0.97, 35.83 -5.94, 43.03 -7.22 M0.63 0 C7.62 -0.96, 35.54 -5.38, 42.51 -6.53" stroke="#f08c00" stroke-width="2" fill="none"></path></g></g><mask></mask><g stroke-linecap="round" transform="translate(256.6000289916992 98.86665153503418) rotate(0 136.00001525878906 89.60003662109375)"><path d="M175.7 3.43 C190.33 5.13, 205.92 12.05, 218.26 18.37 C230.6 24.69, 241.33 32.77, 249.73 41.36 C258.13 49.95, 264.95 60.16, 268.64 69.91 C272.34 79.65, 273.71 89.74, 271.9 99.85 C270.09 109.96, 264.81 121.34, 257.78 130.56 C250.75 139.78, 241.21 148.29, 229.7 155.15 C218.18 162.01, 203.19 167.67, 188.71 171.73 C174.23 175.78, 158.08 178.81, 142.82 179.49 C127.56 180.17, 111.79 178.71, 97.14 175.81 C82.49 172.9, 67.51 168.29, 54.91 162.05 C42.32 155.81, 30.09 147.17, 21.58 138.36 C13.07 129.55, 7.46 119.29, 3.86 109.2 C0.26 99.11, -1.9 87.75, 0 77.81 C1.9 67.88, 8.17 58.5, 15.26 49.6 C22.35 40.7, 31.36 31.35, 42.55 24.41 C53.73 17.47, 68.13 11.99, 82.36 7.95 C96.59 3.9, 110.67 0.27, 127.93 0.12 C145.2 -0.02, 174.78 5.32, 185.95 7.06 C197.13 8.8, 195.78 9.14, 194.98 10.56" stroke="#1e1e1e" stroke-width="2.5" fill="none" stroke-dasharray="8 10"></path></g><g transform="translate(351.10354753544254 176.10989466678961) rotate(0 41.32996368408203 12.5)"><text x="41.32996368408203" y="0" font-family="Virgil, Segoe UI Emoji" font-size="20px" fill="#1e1e1e" text-anchor="middle" style="white-space: pre;" direction="ltr" dominant-baseline="text-before-edge">Internet</text></g><g stroke-linecap="round"><g transform="translate(487.10559505358333 314.37347593411823) rotate(0 -34 -19.20001983642578)"><path d="M0.21 -0.06 C-10.91 -6.82, -56.63 -33.27, -67.83 -39.56 M-1.14 -1.14 C-12.3 -7.28, -57.67 -32.18, -68.69 -38.63" stroke="#f08c00" stroke-width="2" fill="none"></path></g></g><mask></mask><g stroke-linecap="round" transform="translate(506.4999465942383 558.3166332244875) rotate(0 136.00001525878906 89.60003662109375)"><path d="M95.15 4.59 C108.45 0.19, 126.43 -0.65, 141.87 -0.31 C157.31 0.03, 173.57 2.6, 187.8 6.64 C202.02 10.67, 215.8 16.85, 227.2 23.9 C238.6 30.95, 248.89 39.89, 256.18 48.94 C263.47 58, 268.82 68.33, 270.96 78.24 C273.11 88.15, 272.35 98.38, 269.04 108.42 C265.73 118.46, 259.32 129.71, 251.09 138.48 C242.86 147.24, 232.07 155.02, 219.67 161.01 C207.26 167, 191.68 171.25, 176.66 174.42 C161.64 177.58, 144.91 180.41, 129.56 180.01 C114.2 179.61, 98.71 175.94, 84.53 172 C70.35 168.06, 55.89 163.29, 44.49 156.37 C33.1 149.45, 23.21 139.6, 16.15 130.5 C9.09 121.4, 4.44 111.69, 2.12 101.76 C-0.19 91.82, -1.08 80.79, 2.25 70.9 C5.58 61.01, 13.7 51.25, 22.12 42.41 C30.54 33.58, 38.21 24.62, 52.79 17.87 C67.36 11.13, 97.93 4.63, 109.55 1.92 C121.18 -0.79, 122.32 0.15, 122.56 1.6" stroke="#f08c00" stroke-width="2.5" fill="none" stroke-dasharray="8 10"></path></g><g transform="translate(618.9034437756769 635.559876356243) rotate(0 23.42998504638672 12.5)"><text x="23.42998504638672" y="0" font-family="Virgil, Segoe UI Emoji" font-size="20px" fill="#f08c00" text-anchor="middle" style="white-space: pre;" direction="ltr" dominant-baseline="text-before-edge">DMZ</text></g><g stroke-linecap="round" transform="translate(832.2999038696289 634.416723251343) rotate(0 57.200103759765625 30)"><path d="M15 0 C45.25 0.96, 69.94 1.98, 99.4 0 M15 0 C45.25 1.04, 75.43 0.46, 99.4 0 M99.4 0 C110.35 -1.82, 114.82 6.92, 114.4 15 M99.4 0 C109.34 1.45, 115.77 3.99, 114.4 15 M114.4 15 C112.83 23.74, 115.43 35.09, 114.4 45 M114.4 15 C113.24 26.57, 113.57 37.13, 114.4 45 M114.4 45 C116 55.65, 107.68 59.83, 99.4 60 M114.4 45 C115.38 55.4, 110.01 59.33, 99.4 60 M99.4 60 C69.04 60.16, 37.67 59.3, 15 60 M99.4 60 C66.25 60.17, 32.82 60.01, 15 60 M15 60 C5.75 60.25, 0.02 56.16, 0 45 M15 60 C7.22 59.41, 1.4 54.75, 0 45 M0 45 C-1.14 36.06, -0.34 22.43, 0 15 M0 45 C0.34 35.57, -0.21 28.1, 0 15 M0 15 C-1.22 3.22, 3.89 1.32, 15 0 M0 15 C0.76 7.26, 3 -1.03, 15 0" stroke="#f08c00" stroke-width="2" fill="none"></path></g><g transform="translate(837.6000442504883 651.916723251343) rotate(0 51.89996337890625 12.5)"><text x="51.89996337890625" y="0" font-family="Virgil, Segoe UI Emoji" font-size="20px" fill="#f08c00" text-anchor="middle" style="white-space: pre;" direction="ltr" dominant-baseline="text-before-edge">Guacamole</text></g><g stroke-linecap="round"><g transform="translate(562.6877019970025 577.6587305504829) rotate(0 -36.29994201660156 -67.50004196166992)"><path d="M0.4 1.18 C-11.77 -21.54, -61.5 -112.82, -73.64 -135.54 M-0.86 0.75 C-12.6 -21.88, -59.43 -111.85, -71.48 -134.29" stroke="#f08c00" stroke-width="2" fill="none"></path></g></g><mask></mask><g stroke-linecap="round"><g transform="translate(776.6071225768419 663.8703547270504) rotate(0 26.600013732910156 1.4000282287597656)"><path d="M0.79 -1.03 C9.98 -0.45, 45.23 3.42, 54.13 3.93 M-0.25 1.05 C8.95 1.27, 44.64 2.08, 53.67 2.4" stroke="#f08c00" stroke-width="2" fill="none"></path></g></g><mask></mask><g stroke-linecap="round" transform="translate(1074.9999618530273 104.66667175292969) rotate(0 21.500015258789062 15.500020980834961)"><path d="M7.75 0 C18.66 -0.84, 27.96 -3.23, 35.25 0 C39.96 -0.39, 40.49 0.61, 43 7.75 C41.65 13.1, 45.14 17.3, 43 23.25 C45.33 29.99, 40.84 32.55, 35.25 31 C26.36 28.67, 20.08 29.41, 7.75 31 C5.33 31.5, 1.39 29.31, 0 23.25 C2.17 20.41, -0.96 13.84, 0 7.75 C-2.13 5.79, 4.39 -1.42, 7.75 0" stroke="none" stroke-width="0" fill="#1e1e1e"></path><path d="M7.75 0 C19.38 1.4, 29.06 1.73, 35.25 0 M7.75 0 C14.88 0.16, 23.69 -0.02, 35.25 0 M35.25 0 C39.8 1.61, 41.32 0.67, 43 7.75 M35.25 0 C41.4 -0.96, 42.37 2.18, 43 7.75 M43 7.75 C43.18 11.5, 42.23 16.06, 43 23.25 M43 7.75 C43.29 11.74, 42.55 15.78, 43 23.25 M43 23.25 C41.56 29.42, 41.41 29.41, 35.25 31 M43 23.25 C44.47 29.89, 39.66 29.65, 35.25 31 M35.25 31 C23.91 32.78, 15.53 32.48, 7.75 31 M35.25 31 C24.65 31.89, 15.79 30.98, 7.75 31 M7.75 31 C1.5 29.19, -1.81 28.43, 0 23.25 M7.75 31 C3.9 30.87, 1.24 26.67, 0 23.25 M0 23.25 C-1.21 16.99, 0.15 13.09, 0 7.75 M0 23.25 C0.32 19.8, -0.69 16.54, 0 7.75 M0 7.75 C-1 1.88, 2.8 -1.65, 7.75 0 M0 7.75 C2.11 4.24, 0.81 -0.28, 7.75 0" stroke="#1e1e1e" stroke-width="2" fill="none"></path></g><g transform="translate(1147.0000839233398 107.66669273376465) rotate(0 18.139984130859375 12.5)"><text x="0" y="0" font-family="Virgil, Segoe UI Emoji" font-size="20px" fill="#1e1e1e" text-anchor="start" style="white-space: pre;" direction="ltr" dominant-baseline="text-before-edge">ISP</text></g><g stroke-linecap="round" transform="translate(1074.9999618530273 147.7916669845581) rotate(0 21.500015258789062 15.500020980834961)"><path d="M7.75 0 C17.65 3.75, 22.47 -1.45, 35.25 0 C41.59 0.15, 44.46 0.28, 43 7.75 C44.15 14.49, 43.73 14.35, 43 23.25 C41.54 25.31, 37.94 28.94, 35.25 31 C25.71 33.29, 17.91 33.49, 7.75 31 C3.5 33.69, -2.69 27.1, 0 23.25 C-0.57 19.22, -1.99 10.09, 0 7.75 C2.59 2.57, 0.31 0.12, 7.75 0" stroke="none" stroke-width="0" fill="#fd7e14"></path><path d="M7.75 0 C16.13 -0.3, 26 0.02, 35.25 0 M7.75 0 C13.09 0.25, 18.3 1.06, 35.25 0 M35.25 0 C41.86 -1.55, 42.76 3.29, 43 7.75 M35.25 0 C41.57 -1.52, 44.08 1.84, 43 7.75 M43 7.75 C42.68 12.08, 42 19.55, 43 23.25 M43 7.75 C42.87 13.22, 42.47 18.03, 43 23.25 M43 23.25 C43.87 28.65, 41.28 31.03, 35.25 31 M43 23.25 C42.1 28.01, 40.04 29.57, 35.25 31 M35.25 31 C26.19 31.98, 17.07 30.16, 7.75 31 M35.25 31 C26.41 30.91, 16.23 30.63, 7.75 31 M7.75 31 C4.37 32, -0.79 29.05, 0 23.25 M7.75 31 C4.13 32.72, -1.2 30.6, 0 23.25 M0 23.25 C1.48 19.38, -0.41 11.64, 0 7.75 M0 23.25 C-0.48 17.01, 0.01 12.34, 0 7.75 M0 7.75 C-1.37 4.51, 2.23 -1.29, 7.75 0 M0 7.75 C-1.95 1.16, 4.27 -1.2, 7.75 0" stroke="#f08c00" stroke-width="2" fill="none"></path></g><g transform="translate(1145.859992980957 150.79168796539307) rotate(0 41.06996154785156 12.5)"><text x="0" y="0" font-family="Virgil, Segoe UI Emoji" font-size="20px" fill="#1e1e1e" text-anchor="start" style="white-space: pre;" direction="ltr" dominant-baseline="text-before-edge">Sidecart</text></g><g stroke-linecap="round" transform="translate(1074.9999618530273 197.04163074493408) rotate(0 21.500015258789062 15.500020980834961)"><path d="M7.75 0 C16.2 -3.68, 22.32 -0.01, 35.25 0 C38.93 -0.61, 44.03 -0.36, 43 7.75 C41.77 12.28, 40.63 16.15, 43 23.25 C42.72 27.67, 37.58 32.5, 35.25 31 C25 34.2, 24.24 33.41, 7.75 31 C-0.43 30.43, -3.45 29.52, 0 23.25 C2.39 19.02, -0.11 13.71, 0 7.75 C2.45 -0.34, 1.08 0.17, 7.75 0" stroke="none" stroke-width="0" fill="#6741d9"></path><path d="M7.75 0 C14.39 -1.64, 20.58 1.72, 35.25 0 M7.75 0 C17.83 -0.07, 29.29 0.49, 35.25 0 M35.25 0 C39.84 1.47, 41.88 1.06, 43 7.75 M35.25 0 C40.11 1.62, 43.27 4.31, 43 7.75 M43 7.75 C43.15 10.55, 42.89 15.39, 43 23.25 M43 7.75 C43.67 12.56, 43.7 16.57, 43 23.25 M43 23.25 C42.51 27.55, 41.85 30.43, 35.25 31 M43 23.25 C44.18 28.31, 40.03 32.75, 35.25 31 M35.25 31 C31.39 28.89, 22.91 32.19, 7.75 31 M35.25 31 C27.99 30.35, 19.08 32.01, 7.75 31 M7.75 31 C3.03 30.9, 1.1 26.94, 0 23.25 M7.75 31 C4.68 33.01, -1.08 27.61, 0 23.25 M0 23.25 C0.11 19.74, -0.43 16.78, 0 7.75 M0 23.25 C-0.42 19.18, -0.03 16.3, 0 7.75 M0 7.75 C-0.17 3.59, 4.02 -0.87, 7.75 0 M0 7.75 C1.09 2.71, 2.38 -0.56, 7.75 0" stroke="#1971c2" stroke-width="2" fill="none"></path></g><g transform="translate(1145.4300155639648 200.04165172576904) rotate(0 75.64994049072266 12.5)"><text x="0" y="0" font-family="Virgil, Segoe UI Emoji" font-size="20px" fill="#1e1e1e" text-anchor="start" style="white-space: pre;" direction="ltr" dominant-baseline="text-before-edge">Test IP Fabric</text></g><g stroke-linecap="round" transform="translate(1074.9999618530273 244.16663646697998) rotate(0 21.500015258789062 15.500020980834961)"><path d="M7.75 0 C11.76 -0.62, 19.79 -2.95, 35.25 0 C40.27 2.45, 40.74 0.75, 43 7.75 C42.53 11.79, 40.54 18.15, 43 23.25 C41.54 27.15, 43.59 27.88, 35.25 31 C21.88 30.7, 11.08 32.37, 7.75 31 C4.05 32.29, 2.28 31.63, 0 23.25 C1.9 15.75, -1.17 12.92, 0 7.75 C2.49 4.65, 2.85 -1.51, 7.75 0" stroke="none" stroke-width="0" fill="#2f9e44"></path><path d="M7.75 0 C15.1 1.17, 17.43 -0.93, 35.25 0 M7.75 0 C14.82 0.67, 21.91 -0.83, 35.25 0 M35.25 0 C40.15 1.41, 43.23 4.09, 43 7.75 M35.25 0 C38.42 1.01, 41.63 2.7, 43 7.75 M43 7.75 C43.01 11.58, 41.61 17.44, 43 23.25 M43 7.75 C42.96 12.31, 43.7 17.32, 43 23.25 M43 23.25 C44.02 28.33, 40.08 32.53, 35.25 31 M43 23.25 C40.91 29.91, 38.48 33.17, 35.25 31 M35.25 31 C29.33 32.44, 24.5 32.47, 7.75 31 M35.25 31 C29.25 31.21, 23.35 30.52, 7.75 31 M7.75 31 C4.4 32.75, -0.94 27.72, 0 23.25 M7.75 31 C0.89 31.19, -1.55 28.59, 0 23.25 M0 23.25 C-1.31 20.1, -1.36 13.42, 0 7.75 M0 23.25 C-0.09 20.54, 0.53 16.71, 0 7.75 M0 7.75 C0.95 2.69, 2.41 -0.48, 7.75 0 M0 7.75 C0.69 4.14, 2.95 -0.4, 7.75 0" stroke="#2f9e44" stroke-width="2" fill="none"></path></g><g transform="translate(1136.3500671386719 247.16665744781494) rotate(0 63.289955139160156 12.5)"><text x="0" y="0" font-family="Virgil, Segoe UI Emoji" font-size="20px" fill="#1e1e1e" text-anchor="start" style="white-space: pre;" direction="ltr" dominant-baseline="text-before-edge">Out of Band</text></g><g stroke-linecap="round" transform="translate(10 554.166669845581) rotate(0 35.5000114440918 18.500003814697266)"><path d="M9.25 0 C23.64 0.44, 34.75 -1.66, 61.75 0 M9.25 0 C21.15 0.05, 32.67 -0.38, 61.75 0 M61.75 0 C68.42 1.59, 69.62 4.77, 71 9.25 M61.75 0 C66.75 0.95, 72.23 4.99, 71 9.25 M71 9.25 C72.15 16.37, 71.11 21.84, 71 27.75 M71 9.25 C70.46 12.96, 71.19 16.25, 71 27.75 M71 27.75 C69.61 34.37, 67.69 36.4, 61.75 37 M71 27.75 C68.94 33.69, 68.79 39.01, 61.75 37 M61.75 37 C50.8 36.42, 37.23 37.69, 9.25 37 M61.75 37 C51.78 36.11, 39.92 35.95, 9.25 37 M9.25 37 C3.17 36.79, 0.49 34.27, 0 27.75 M9.25 37 C0.83 37.19, -1.24 33.74, 0 27.75 M0 27.75 C1.45 23, 1.41 17.95, 0 9.25 M0 27.75 C-0.24 23.41, -0.38 19.37, 0 9.25 M0 9.25 C0.83 1.49, 3.93 -0.79, 9.25 0 M0 9.25 C0.12 3.26, 0.81 -0.63, 9.25 0" stroke="#1971c2" stroke-width="2" fill="none"></path></g><g transform="translate(19.970027923583984 560.1666736602783) rotate(0 25.529983520507812 12.5)"><text x="25.529983520507812" y="0" font-family="Virgil, Segoe UI Emoji" font-size="20px" fill="#1971c2" text-anchor="middle" style="white-space: pre;" direction="ltr" dominant-baseline="text-before-edge">qfx01</text></g><g stroke-linecap="round"><g transform="translate(133.00003051757812 561.1666774749756) rotate(0 -25.500011444091797 7.000007629394531)"><path d="M0.05 -0.12 C-8.32 2.36, -42 11.84, -50.71 14.21 M-1.38 -1.23 C-9.85 0.93, -43.42 9.42, -51.5 12.2" stroke="#2f9e44" stroke-width="2" fill="none"></path></g></g><mask></mask><g stroke-linecap="round" transform="translate(304.19995880126953 10) rotate(0 50.80000305175781 28)"><path d="M14 0 C39.17 1.05, 62.66 0.08, 87.6 0 M14 0 C37.82 -0.14, 63.96 -0.47, 87.6 0 M87.6 0 C97.1 1.35, 101.58 5.66, 101.6 14 M87.6 0 C97.91 1.1, 102.18 2.82, 101.6 14 M101.6 14 C102.44 22.03, 102.26 31.69, 101.6 42 M101.6 14 C102.27 23.88, 102.66 32.19, 101.6 42 M101.6 42 C101.89 53.07, 98.01 56.69, 87.6 56 M101.6 42 C101.62 51.1, 94.69 57.9, 87.6 56 M87.6 56 C64.48 55.82, 36.76 54.47, 14 56 M87.6 56 C63.89 55.11, 39.33 55.13, 14 56 M14 56 C5.85 57.33, -0.4 51.47, 0 42 M14 56 C4.57 56.56, 1.54 51.74, 0 42 M0 42 C0.78 35.38, -1.66 27.24, 0 14 M0 42 C-0.13 36.07, -0.14 31.58, 0 14 M0 14 C1.28 4.39, 6.27 0.69, 14 0 M0 14 C2.21 6.34, 5.54 -0.76, 14 0" stroke="#1e1e1e" stroke-width="2" fill="none"></path></g><g transform="translate(333.35997772216797 28) rotate(0 21.639984130859375 10)"><text x="21.639984130859375" y="0" font-family="Virgil, Segoe UI Emoji" font-size="16px" fill="#1e1e1e" text-anchor="middle" style="white-space: pre;" direction="ltr" dominant-baseline="text-before-edge">Client</text></g><g stroke-linecap="round"><g transform="translate(354.0000534057617 66.00003051757812) rotate(0 0.49999237060546875 18.999996185302734)"><path d="M-0.17 -0.12 C0.04 6.2, 0.91 31.83, 1.03 38.22 M0.75 -0.66 C0.91 5.47, 0.47 31.05, 0.62 37.37" stroke="#1e1e1e" stroke-width="2" fill="none"></path></g></g><mask></mask></svg>